<svg id="Layer_1" data-name="Layer 1" xmlns="http://www.w3.org/2000/svg" viewBox="0 0 160 81"><defs><style>.cls-1{fill:#fff;}</style></defs><path class="cls-1" d="M112,36.31a2,2,0,0,0-.57,1.48V49.26a2,2,0,0,0,2.05,2.05,2,2,0,0,0,1.49-.57,2,2,0,0,0,.58-1.48V37.79a1.82,1.82,0,0,0-2.07-2,2,2,0,0,0-1.48.56M111.72,30a2.45,2.45,0,0,0-.75,1.79,2.54,2.54,0,0,0,5.07,0A2.53,2.53,0,0,0,111.72,30"/><path class="cls-1" d="M24.26,19.26c-3.82,2.16-7.41,3.08-8,2s2.05-3.63,5.88-5.79,7.41-3.08,8-2-2,3.62-5.88,5.79m6.89-6.06c-.84-1.48-5-.71-9.33,1.73s-7.14,5.62-6.3,7.1,5,.72,9.34-1.72S32,14.69,31.15,13.2"/><path class="cls-1" d="M17.78,27.88a2.1,2.1,0,0,1,.24-.69,2.14,2.14,0,0,1,.46-.58,2.28,2.28,0,0,1,.65-.4,2,2,0,0,1,.75-.15,1.76,1.76,0,0,1,.72.12,1.91,1.91,0,0,1,.62.39,1.78,1.78,0,0,1,.42.64,2,2,0,0,1,.13.79,2.07,2.07,0,0,1-.21.8,2.21,2.21,0,0,1-.51.67,2.14,2.14,0,0,1-.76.44,2.05,2.05,0,0,1-.84.11,1.92,1.92,0,0,1-.75-.22,1.76,1.76,0,0,1-.57-.48,1.82,1.82,0,0,1-.32-.69,1.9,1.9,0,0,1,0-.75m-.21.84a2.19,2.19,0,0,0,.36.77,1.88,1.88,0,0,0,.64.55,2.22,2.22,0,0,0,1.81.14,2.47,2.47,0,0,0,1.44-1.27,2.18,2.18,0,0,0,.23-.9,2.08,2.08,0,0,0-.64-1.62,2.1,2.1,0,0,0-.7-.43,2.19,2.19,0,0,0-.81-.13,2.51,2.51,0,0,0-.83.17,2.56,2.56,0,0,0-.73.45,2.7,2.7,0,0,0-.52.65,2.36,2.36,0,0,0-.27.77,2.21,2.21,0,0,0,0,.85m.8-.62.16.6-.35-.2Zm.87-1.56.37.13L19,26.9Zm.6,1.08a.41.41,0,0,1,.11.07.75.75,0,0,1,.07.12A.33.33,0,0,1,20,28a.28.28,0,0,1,0,.13.44.44,0,0,1-.08.11l-.13.08a.36.36,0,0,1-.14,0,.28.28,0,0,1-.13,0,.28.28,0,0,1-.11-.08.23.23,0,0,1-.06-.12.26.26,0,0,1,0-.26.44.44,0,0,1,.08-.11.37.37,0,0,1,.12-.07l.14,0a.28.28,0,0,1,.13,0m.55,1.45-.23.42-.42-.19Zm.85-1.71-.19.41-.22-.6ZM18,29a.08.08,0,0,0,0,.05l0,0,.05,0h.05l1.08-.39.32,1.13,0,.05.05,0,.05,0h.06l1-.34a.05.05,0,0,0,.05,0l0,0a.13.13,0,0,0,0-.06s0,0,0-.06l-.38-1.13,1.14-.42.05,0s0,0,0,0a.13.13,0,0,0,0-.06.09.09,0,0,0,0-.05l-.34-.88,0-.05,0,0h-.11l-1.1.41-.32-1,0,0a.05.05,0,0,0,0,0h-.1l-.85.34s0,0,0,0l0,0s0,0,0,0a.07.07,0,0,0,0,.05l.28,1-1,.39,0,0,0,0,0,.05v.05Zm14.41-5a.76.76,0,0,0-.21-.19.62.62,0,0,0-.27-.09.81.81,0,0,0-.31,0,1,1,0,0,0-.29.11,1.1,1.1,0,0,0-.22.21.69.69,0,0,0-.12.26.7.7,0,0,0,0,.29.66.66,0,0,0,.12.27.67.67,0,0,0,.21.2.73.73,0,0,0,.29.11.7.7,0,0,0,.32,0,1,1,0,0,0,.3-.12.73.73,0,0,0,.21-.22.66.66,0,0,0,.12-.27.63.63,0,0,0-.13-.55M36,23.28a1.24,1.24,0,0,0-.22-.18,1.43,1.43,0,0,0-.27-.09.93.93,0,0,0-.29,0,.59.59,0,0,0-.26.1.66.66,0,0,0-.18.19.85.85,0,0,0-.09.24.63.63,0,0,0,0,.27.66.66,0,0,0,.14.26.76.76,0,0,0,.22.18.73.73,0,0,0,.28.1.76.76,0,0,0,.3,0,1,1,0,0,0,.27-.12.55.55,0,0,0,.17-.2.53.53,0,0,0,.08-.25.51.51,0,0,0,0-.27.72.72,0,0,0-.14-.24m-2.59-.19a.81.81,0,0,0,.27-.11.66.66,0,0,0,.19-.18.5.5,0,0,0,.09-.23.53.53,0,0,0,0-.25.61.61,0,0,0-.13-.22.55.55,0,0,0-.2-.17,1,1,0,0,0-.26-.09.89.89,0,0,0-.28,0,1.14,1.14,0,0,0-.26.09,1,1,0,0,0-.19.17.67.67,0,0,0-.1.23.53.53,0,0,0,0,.25.55.55,0,0,0,.12.24.55.55,0,0,0,.2.17.62.62,0,0,0,.27.09.71.71,0,0,0,.29,0m1.37,2.27a.74.74,0,0,0-.23-.2.77.77,0,0,0-.29-.1.86.86,0,0,0-.32,0,.9.9,0,0,0-.28.13.73.73,0,0,0-.21.22,1,1,0,0,0-.11.28,1.23,1.23,0,0,0,0,.33,1.11,1.11,0,0,0,.14.29,1,1,0,0,0,.24.22.77.77,0,0,0,.3.11.74.74,0,0,0,.33,0,.74.74,0,0,0,.5-.38.83.83,0,0,0,.1-.29.89.89,0,0,0,0-.32.76.76,0,0,0-.15-.28m1.58-1.47a.62.62,0,0,1-.09.3.72.72,0,0,1-.21.25,1,1,0,0,1-.32.14.92.92,0,0,1-.37,0,1,1,0,0,1-.34-.12,1,1,0,0,1-.28-.23.92.92,0,0,1-.16-.31.67.67,0,0,1,0-.34.65.65,0,0,1,.11-.29.66.66,0,0,1,.22-.22.73.73,0,0,1,.31-.13,1.29,1.29,0,0,1,.34,0,1.17,1.17,0,0,1,.33.11,1.39,1.39,0,0,1,.27.21,1.49,1.49,0,0,1,.18.3.75.75,0,0,1,0,.33m-1.21,2.18a.89.89,0,0,1-.11.36,1,1,0,0,1-.25.29.88.88,0,0,1-.35.17,1,1,0,0,1-.41,0,1,1,0,0,1-.37-.14,1.06,1.06,0,0,1-.29-.27,1.09,1.09,0,0,1-.17-.36,1,1,0,0,1,0-.39,1,1,0,0,1,.39-.61,1,1,0,0,1,.34-.15,1,1,0,0,1,.38,0,1,1,0,0,1,.35.12,1,1,0,0,1,.28.25.94.94,0,0,1,.19.34,1.25,1.25,0,0,1,0,.38M32.49,23a.92.92,0,0,1-.14-.28.81.81,0,0,1,0-.31.68.68,0,0,1,.13-.27.93.93,0,0,1,.23-.21,1.43,1.43,0,0,1,.31-.12,1,1,0,0,1,.35,0,1.15,1.15,0,0,1,.31.11,1.12,1.12,0,0,1,.24.19.76.76,0,0,1,.15.28.61.61,0,0,1,0,.3.57.57,0,0,1-.11.28.84.84,0,0,1-.23.23.82.82,0,0,1-.32.12.87.87,0,0,1-.36,0,1.17,1.17,0,0,1-.33-.11,1,1,0,0,1-.25-.22m.25,1.69a.81.81,0,0,1-.14.33,1.1,1.1,0,0,1-.26.27,1.14,1.14,0,0,1-.36.15.9.9,0,0,1-.4,0,.83.83,0,0,1-.34-.13.78.78,0,0,1-.27-.24.93.93,0,0,1-.13-.34.69.69,0,0,1,0-.35A.86.86,0,0,1,31,24a.78.78,0,0,1,.27-.24,1,1,0,0,1,.35-.14.92.92,0,0,1,.37,0,.93.93,0,0,1,.33.12,1.09,1.09,0,0,1,.26.22.92.92,0,0,1,.14.32.83.83,0,0,1,0,.35M30.56,30c0,.07,0,.14,0,.2a1.53,1.53,0,0,0,2.93-.85,1.48,1.48,0,0,0-.12-.29,1.63,1.63,0,0,1,.21.44,1.56,1.56,0,1,1-3,.87,2.38,2.38,0,0,1-.06-.37m1.14-1.49a1.18,1.18,0,0,1,1.29.45,1.51,1.51,0,0,0-1.19-.12,1.48,1.48,0,0,0-.95.74,1.2,1.2,0,0,1,.85-1.07m-1.77,1.64a14.83,14.83,0,0,0-2,.41,14.88,14.88,0,0,0-1.94.74l-.11-.18a13.66,13.66,0,0,1,2-.77,15.32,15.32,0,0,1,2.08-.41c0,.07,0,.14,0,.21m-2.5-4.89q.48-.09,1-.15a.21.21,0,0,1,.23.18c0,.05,0,.1,0,.16a.22.22,0,0,1-.19.22c-.32,0-.63.08-.94.15a.22.22,0,0,1-.25-.16l0-.16a.21.21,0,0,1,.17-.24m-3,8.52a1.56,1.56,0,0,1-1.93-1.06,1.54,1.54,0,0,1-.06-.43,2.38,2.38,0,0,0,.05.26,1.53,1.53,0,0,0,2.93-.85,1.33,1.33,0,0,0-.1-.24,1.38,1.38,0,0,1,.18.39,1.56,1.56,0,0,1-1.07,1.93m-.84-2.92a1.17,1.17,0,0,1,1.29.45,1.53,1.53,0,0,0-1.2-.13,1.58,1.58,0,0,0-.95.75,1.18,1.18,0,0,1,.86-1.07m-.69-2.71a3.27,3.27,0,0,1-.3,1.21,3.23,3.23,0,0,1-.79,1,3.17,3.17,0,0,1-1.18.68l-.11,0a3.2,3.2,0,0,1-1.19.12,2.9,2.9,0,0,1-1.13-.37,2.53,2.53,0,0,1-.84-.75,2.68,2.68,0,0,1-.45-1,3,3,0,0,1,0-1.11,3,3,0,0,1,.38-1,2.64,2.64,0,0,1,.23-.35l-.18.27a3.11,3.11,0,0,0-.35,1,2.76,2.76,0,0,0,0,1.07,2.45,2.45,0,0,0,.43,1,2.53,2.53,0,0,0,.8.73,2.75,2.75,0,0,0,1.09.36,3,3,0,0,0,1.25-.14,3.25,3.25,0,0,0,1.13-.65,3.06,3.06,0,0,0,.75-1A2.85,2.85,0,0,0,22.76,28a2.75,2.75,0,0,0-.22-1.16A2.55,2.55,0,0,0,21,25.44a1.56,1.56,0,0,0-.37-.1,2.47,2.47,0,0,1,.47.11A2.75,2.75,0,0,1,22,26a2.61,2.61,0,0,1,.67.94,2.73,2.73,0,0,1,.23,1.2m-4.62-1.71a2.56,2.56,0,0,1,.74-.46,2.25,2.25,0,0,1,.86-.18,2.29,2.29,0,0,1,.83.13,2.17,2.17,0,0,1,.71.44,2,2,0,0,1,.51.74,2.26,2.26,0,0,1,.16.92,2.48,2.48,0,0,1-.84,1.72,2.77,2.77,0,0,1-.88.52,2.45,2.45,0,0,1-1,.12,2.16,2.16,0,0,1-.87-.27,2.21,2.21,0,0,1-.65-.57,2.11,2.11,0,0,1-.39-1.66,2.2,2.2,0,0,1,.28-.79,2.61,2.61,0,0,1,.53-.66m7.35-.08c-.3.12-.59.24-.87.38a.21.21,0,0,1-.28-.09c0-.05-.05-.09-.07-.14a.21.21,0,0,1,.1-.28c.3-.14.61-.27.92-.39a.2.2,0,0,1,.27.11.88.88,0,0,0,.05.15.2.2,0,0,1-.12.26M44.38,13.88a3.36,3.36,0,0,0,1.83-1.66,18.74,18.74,0,0,1-2.22.31A12.22,12.22,0,0,0,46.61,11a15.38,15.38,0,0,1-2.32,1.07A3.48,3.48,0,0,0,45.8,9.79a16.75,16.75,0,0,1-1.83.79,12.17,12.17,0,0,0,2.17-2.34,15.73,15.73,0,0,1-2.41,2.08,4.23,4.23,0,0,0,1.21-3.11,16.69,16.69,0,0,1-1.56,1.35A12,12,0,0,0,45,5.41a14.88,14.88,0,0,1-1.83,2.88,5.58,5.58,0,0,0,.54-3.66,16.81,16.81,0,0,1-1.11,1.79,12.1,12.1,0,0,0,.88-3.23,15,15,0,0,1-1.3,3.26A7.21,7.21,0,0,0,42,2.27a23,23,0,0,1-.73,2.28A11.82,11.82,0,0,0,41.15.63a14.89,14.89,0,0,1-.21,3.76,8.51,8.51,0,0,0-.76-4,33.65,33.65,0,0,1-.77,4.74A6.91,6.91,0,0,0,39,3.93a8.87,8.87,0,0,1-1.21,4.53,2.14,2.14,0,0,0-.41,1.22,4.16,4.16,0,0,1,.07-1.4c-.72,2-.65,2,.84,4a2.92,2.92,0,0,1,.61,2.22,6.56,6.56,0,0,1-1.76,2.71,1.07,1.07,0,0,0-.21.46,3.2,3.2,0,0,1,.32-1.79,7.53,7.53,0,0,0-1.28,5,4,4,0,0,0-3.69-.92l-.36.12a.19.19,0,0,0-.11.12,4.79,4.79,0,0,1,4.09,1l.12.1a.5.5,0,0,1,0,.12A4.62,4.62,0,0,0,30.28,21l-.36.24a19.24,19.24,0,0,1-.23,5.9,5.39,5.39,0,0,1-.9,2.07c1-1.37,1.28-4.23.93-7.83a23.3,23.3,0,0,1-4.1,1.35,21.76,21.76,0,0,1-4.18,1.05c1.63,3.23,3.43,5.48,5,6.12a5.4,5.4,0,0,1-1.87-1.26,19.26,19.26,0,0,1-3.35-4.87h-.44a4.67,4.67,0,0,0-4.71,3.63L16,27.25c0-.1.07-.21.11-.32A4.8,4.8,0,0,1,19,23.86a.19.19,0,0,0-.16,0,2.22,2.22,0,0,0-.37.09,4,4,0,0,0-2.67,2.91A7.56,7.56,0,0,0,12,23.18a3.25,3.25,0,0,1,1.22,1.33,1.13,1.13,0,0,0-.42-.27,6.43,6.43,0,0,1-2.93-1.35,2.85,2.85,0,0,1-.68-2.19c.19-2.48.25-2.52-1.41-3.8A4.29,4.29,0,0,1,8.59,18a2.22,2.22,0,0,0-1-.81,8.92,8.92,0,0,1-3.45-3.17,6.49,6.49,0,0,0,.29,1.19,36.25,36.25,0,0,1-3.19-3.59,8.51,8.51,0,0,0,1.53,3.81A14.75,14.75,0,0,1,.58,12.41a11.69,11.69,0,0,0,2,3.39A22,22,0,0,1,.7,14.27a7.23,7.23,0,0,0,2.16,3.57A14.73,14.73,0,0,1,0,15.79a12.12,12.12,0,0,0,2.47,2.26A18.93,18.93,0,0,1,.6,17.13,5.6,5.6,0,0,0,3,19.93,15.51,15.51,0,0,1-.08,18.48a12.19,12.19,0,0,0,3,1.82A15.69,15.69,0,0,1,.9,20a4.21,4.21,0,0,0,2.69,2A14.84,14.84,0,0,1,.44,21.5a12,12,0,0,0,3.08.82,15.66,15.66,0,0,1-2,.31A3.45,3.45,0,0,0,4,23.75a15.37,15.37,0,0,1-2.53.34,12.21,12.21,0,0,0,3-.11,19.78,19.78,0,0,1-2,.92,3.34,3.34,0,0,0,2.43.43,15.91,15.91,0,0,1-2.47.81,12.25,12.25,0,0,0,3-.68A18.5,18.5,0,0,1,3.74,26.7a3.65,3.65,0,0,0,2.78-.3A15,15,0,0,1,4,27.87a11.68,11.68,0,0,0,2.52-1.08A16.24,16.24,0,0,1,5.21,28a4.07,4.07,0,0,0,2.53-.66,12.71,12.71,0,0,1-2,1.69,9.78,9.78,0,0,0,2.29-1.61A15,15,0,0,1,6.9,28.93a4.06,4.06,0,0,0,2.51-1.06,9.44,9.44,0,0,1-1.83,1.79,7.66,7.66,0,0,0,2-1.63,9.11,9.11,0,0,1-.85,1.46A3.62,3.62,0,0,0,11,28.31a10.51,10.51,0,0,1-1.1,1.6,8,8,0,0,0,1.42-1.71,6.46,6.46,0,0,1-.53,1.61,2.58,2.58,0,0,0,2-1.4,10.84,10.84,0,0,1-.57,1.69,7.83,7.83,0,0,0,.8-1.73A6,6,0,0,1,12.94,30c1.06-.31,1.48-.9,1.52-1.64a10.56,10.56,0,0,1,.1,2,7.89,7.89,0,0,0,.13-1.78,8.93,8.93,0,0,1,.42,1.57,1.32,1.32,0,0,0,.51-.52c0,.42,0,.86,0,1.31s.31,1,.48,1.39l0,.14a.56.56,0,0,0,0-.12,16.51,16.51,0,0,0,1.75,3.14c.85,1.25,1.47,2.16,1.09,3.72a2.36,2.36,0,0,0,1.93.61c.64-.14,1-1,1.25-2A12.1,12.1,0,0,1,22,35.67a10,10,0,0,1,.22-2,2.27,2.27,0,0,1-.45-.84A2.23,2.23,0,0,1,23.27,30a2.17,2.17,0,0,1,2.18.6A2.16,2.16,0,0,0,22,32.87a2.4,2.4,0,0,0,.42.79,12.77,12.77,0,0,0-.23,3.86c.17-.7.3-1.44.46-2.07,0-.08,0-.16.07-.24a0,0,0,0,1,0,0s0,0,0-.06a0,0,0,0,0,0,0s0,0,0-.06a0,0,0,0,0,0,0,.3.3,0,0,1,0-.1s0,0,0,0v0l0,0,0,0v0l0,0,0,0s0,0,0,0l0-.06s0,0,0,0a.05.05,0,0,0,0,0l0,0s0,0,0,0l0,0,0,0a0,0,0,0,1,0,0l.06-.08a2.11,2.11,0,0,0,1.51.12,2.18,2.18,0,0,0,1.55-1.81c.35-.15.71-.29,1.06-.42h0l.26-.09h0l.23-.08h0l.22-.07.05,0,.21-.06.22-.06h0l.23-.06h0c.51-.12,1.08-.24,1.65-.33a2.16,2.16,0,0,0,3.5-.21l.09,0h0l.06,0h0l0,0h0l0,0h0l0,0h0l.15.1,0,0,0,0h0l.24.2h0l.06.05h0l.2.19h0c.47.44,1,1,1.49,1.5a12.39,12.39,0,0,0-2.26-3.15,2,2,0,0,0-.07-.88,2.16,2.16,0,0,0-4.07-.23,2.19,2.19,0,0,1,1.46-1.47,2.25,2.25,0,0,1,2.74,1.57,2.14,2.14,0,0,1,.07,1,10.81,10.81,0,0,1,1.25,1.56,11.58,11.58,0,0,1,1,1.78c.77.73,1.53,1.28,2.15,1.06A2.45,2.45,0,0,0,40.12,33C39,31.9,39,30.8,39,29.29a14.85,14.85,0,0,0-.53-5c-.21-.34-.44-.67-.67-1a1.37,1.37,0,0,0,.52.07,7.32,7.32,0,0,1-.49-1.55,7.71,7.71,0,0,0,1.06,1.44,10,10,0,0,1-1-1.71,1.76,1.76,0,0,0,2.16.57,6.11,6.11,0,0,1-.93-1.34,8,8,0,0,0,1.6,1,10.22,10.22,0,0,1-1.39-1.12,2.6,2.6,0,0,0,2.42.14,7.05,7.05,0,0,1-1.31-1.08,7.87,7.87,0,0,0,2.12.68,10,10,0,0,1-1.79-.77,3.59,3.59,0,0,0,2.52-.19,10.46,10.46,0,0,1-1.5-.78,7.59,7.59,0,0,0,2.6.28A9.18,9.18,0,0,1,42,18.42,4.07,4.07,0,0,0,44.65,18a15.67,15.67,0,0,1-1.78-.62,9.53,9.53,0,0,0,2.79.13,11.69,11.69,0,0,1-2.55-.38,4.07,4.07,0,0,0,2.49-.79s-.73-.1-1.76-.35a11.83,11.83,0,0,0,2.7-.44,15,15,0,0,1-2.92.11,3.66,3.66,0,0,0,2.51-1.23A20.44,20.44,0,0,1,44,14.28a11.86,11.86,0,0,0,2.9-1,15.28,15.28,0,0,1-2.52.64M15.59,31.34c0,.36,0,.73.08,1.1a11.53,11.53,0,0,0,.44,2.21h0a.19.19,0,0,0,0,.07l.05.17,0,.08a1.09,1.09,0,0,0,.05.17l0,.07.06.17,0,.07.06.16a.64.64,0,0,0,0,.07,1.22,1.22,0,0,1,.07.17l0,.06a1.11,1.11,0,0,0,.07.16.14.14,0,0,1,0,.06,1.19,1.19,0,0,1,.08.16.17.17,0,0,1,0,.05l.09.17,0,0a1.3,1.3,0,0,0,.08.17l0,0a1.62,1.62,0,0,0,.1.18v0l.1.17h0a1.18,1.18,0,0,0,.11.19h0a7,7,0,0,0,1.53,1.78c.79-2.66-2.06-3-3.23-7.76m23.14-6.72c1.58,4.7-.67,6.46,1.43,8.29a10.13,10.13,0,0,0-.91-7.31c-.17-.34-.34-.66-.52-1"/><path class="cls-1" d="M75.59,54h.07a.29.29,0,0,1,.33.27c0,.06,0,.1.1.1a6.88,6.88,0,0,1,2,.76,1,1,0,0,1,.63,1.1v0A2.27,2.27,0,0,1,77.6,57.7a8.48,8.48,0,0,1-1.47.75l-.63.22a6.07,6.07,0,0,1,0,1.42l0,.1c-.07.32-.19.51-.38.57s-.46-.41-.37-1.24c0-.41,0-.61-.1-.61a.67.67,0,0,0-.24-.08s-.07-.15-.07-.32l0,0v0a1.43,1.43,0,0,1,.34-.27h0a10.48,10.48,0,0,1,.17-2.27l.09-.65c-.37-.15-.54-.26-.53-.32l0-.07c.13-.26.21-.38.24-.38l.47-.14a.63.63,0,0,1,.53-.33m.09,1.13h0a12.77,12.77,0,0,0-.25,2.78,8.68,8.68,0,0,0,1.39-.56,2.09,2.09,0,0,0,.94-.92.49.49,0,0,0,.06-.16h0c.09-.44-.61-.81-2.1-1.13Z"/><path class="cls-1" d="M80.09,53.33h0c.16,0,.22.06.2.19a4.73,4.73,0,0,1-.1.95l-.52,2.17,0,.23a16.21,16.21,0,0,0-.24,2.71l0,.16c0,.18-.11.29-.2.32a1.33,1.33,0,0,0-.38.08L78.61,60a20.94,20.94,0,0,1,.32-3.32l.08-.41a12.72,12.72,0,0,1,.52-1.83s0-.1,0-.31L79.44,54s.13-.18.24-.53a.74.74,0,0,1,.41-.16"/><path class="cls-1" d="M82.89,56.67H83q.24,0,.24.39a8.75,8.75,0,0,0,0,1.33,2.54,2.54,0,0,0,.31,1.06.78.78,0,0,1,.12.46V60c0,.1-.09.14-.22.14a.82.82,0,0,1-.25.11,1,1,0,0,1-.51-.52c-.06-.19-.16-.57-.28-1.12l0-.09a11.53,11.53,0,0,1-1,1,1.52,1.52,0,0,1-1,.4.49.49,0,0,1-.55-.5l0-.15v-.05A3.51,3.51,0,0,1,81,57.57a7.52,7.52,0,0,1,1.44-.75.8.8,0,0,1,.43-.15M80.7,59.11v0h0c.2,0,.43-.17.7-.5a2.6,2.6,0,0,0,.75-1v0h0a4,4,0,0,0-.9.63,1.78,1.78,0,0,0-.53.9"/><path class="cls-1" d="M87,56a.26.26,0,0,1,.25.15c-.21,1.49-.38,2.54-.5,3.15v.1L86.54,61l0,.19a2,2,0,0,1-1.26,1.57,1.68,1.68,0,0,1-.43.07,1.73,1.73,0,0,1-1.4-.9.71.71,0,0,1-.11-.47.58.58,0,0,1,.34-.14c.08,0,.23.1.44.29a.42.42,0,0,0,.21,0l.52.35a.58.58,0,0,0,.2.05h0c.25,0,.46-.23.63-.67a5.87,5.87,0,0,0,.25-1,11.28,11.28,0,0,0,.2-2.17,7.66,7.66,0,0,0-.82.9c-.31.27-.52.4-.63.4a1.3,1.3,0,0,1-.53.09H84.1c-.13,0-.22-.17-.27-.5a2.86,2.86,0,0,1,.06-.58,7.1,7.1,0,0,1,.64-1.74c.13-.2.26-.29.37-.29H85a.43.43,0,0,1,.29.15v0A6.25,6.25,0,0,1,84.78,58a3.22,3.22,0,0,0-.2.62l0,.2h0c.11,0,.3-.13.55-.38,0,0,.11-.09.2-.26a6.36,6.36,0,0,0,1-1.51,1.21,1.21,0,0,0,.13-.38v0a1.64,1.64,0,0,0,.3-.29Z"/><path class="cls-1" d="M91.7,54h.08c.52,0,.89.33,1.1,1a1.67,1.67,0,0,1,0,.64,2.49,2.49,0,0,1-.36.34.39.39,0,0,1-.17.07h0c-.12,0-.23-.21-.34-.63a.73.73,0,0,0-.32-.57l0,0a1.3,1.3,0,0,0-.66.34,3.07,3.07,0,0,0-.81,1.64l0,.12a3.5,3.5,0,0,0,.39,2.67.67.67,0,0,0,.53.29c.45,0,1-.54,1.58-1.62a9.85,9.85,0,0,0,.43-1c-.24,0-.75.13-1.51.27v0c0-.08,0-.14-.19-.19a.17.17,0,0,1-.08-.16h0c.06-.3.49-.51,1.3-.63a10.81,10.81,0,0,1,1.21-.08c.13,0,.18,0,.17.07a2.08,2.08,0,0,1,0,.41,8.21,8.21,0,0,1-1.24,2.47,3,3,0,0,1-1.4,1.14.89.89,0,0,1-.36.07h0a1.57,1.57,0,0,1-1.18-.56,4.16,4.16,0,0,1-.5-3l0-.13a4.49,4.49,0,0,1,1.27-2.45A1.86,1.86,0,0,1,91.7,54"/><path class="cls-1" d="M96.67,56.67h.06q.24,0,.24.39a8.75,8.75,0,0,0,0,1.33,2.54,2.54,0,0,0,.31,1.06.78.78,0,0,1,.12.46V60c0,.1-.09.14-.21.14a.94.94,0,0,1-.26.11,1,1,0,0,1-.51-.52c-.06-.19-.16-.57-.28-1.12l0-.09a11.53,11.53,0,0,1-1,1,1.52,1.52,0,0,1-1,.4.49.49,0,0,1-.55-.5l0-.15v-.05a3.51,3.51,0,0,1,1.21-1.66,7.52,7.52,0,0,1,1.44-.75.8.8,0,0,1,.43-.15m-2.19,2.44v0h0c.2,0,.43-.17.7-.5a2.6,2.6,0,0,0,.75-1v0h0a3.94,3.94,0,0,0-.91.63,1.78,1.78,0,0,0-.53.9"/><path class="cls-1" d="M100.83,57.2h.07c.26,0,.4.1.4.16a4.7,4.7,0,0,1,.25,1.15,11.46,11.46,0,0,0,.24,1.27.57.57,0,0,1-.18.17s0,.06-.06.06a.62.62,0,0,1-.67-.63,3.5,3.5,0,0,0-.16-.92h0c-.58,1-1,1.56-1.13,1.56h-.11c-.31,0-.43-.31-.36-.92a2.3,2.3,0,0,0,0-.74,3.07,3.07,0,0,0-.53.86c-.25.52-.49.78-.71.78a.48.48,0,0,1-.3-.12l0-.06v-.06l-.06-.08a1.72,1.72,0,0,0,.17-.46l.13-.8.05-.19c.09,0,.15-.07.17-.21l0-.07s.07-.05.21-.1.06-.07.08-.07l.15.06a3.16,3.16,0,0,0,.51-.43.7.7,0,0,1,.2-.12c.4,0,.62.26.67.76l0,.12h0a6.88,6.88,0,0,0,.38-.63.83.83,0,0,1,.23-.23h.11Z"/><path class="cls-1" d="M103.59,56.75c.42,0,.72.27.88.8a2.62,2.62,0,0,1,0,.4c-.08.39-.46.71-1.15,1h0a.6.6,0,0,0,.58.41,2.15,2.15,0,0,0,1.35-.86,1.38,1.38,0,0,1,.67-.42h0l0,0,0,.11,0,.05a.07.07,0,0,0,0,0c.05,0,.1,0,.14-.13h0a1.6,1.6,0,0,1-.5.66,1.36,1.36,0,0,0-.13.24c-.12,0-.18.07-.2.13a2.44,2.44,0,0,1-1.16.78,1.73,1.73,0,0,1-.37,0h-.12c-.6,0-1.1-.42-1.52-1.25v0l.13-.94v-.09a.9.9,0,0,1,.54-.74,1.9,1.9,0,0,1,.79-.22M103,57.91c0,.24,0,.4.11.5a1,1,0,0,0,.47-.22,1.07,1.07,0,0,0,.1-.23.39.39,0,0,0-.24-.5h-.09q-.18,0-.21.12a.83.83,0,0,0-.14.34"/><path class="cls-1" d="M107.28,57h.1q.45,0,.45.21a.83.83,0,0,1,0,.27.82.82,0,0,1-.42.2c-.6.09-.91.16-.92.23s.25.25.59.35a6.12,6.12,0,0,1,1.25.4.55.55,0,0,1,.27.59c-.09.41-.51.69-1.29.83a4.82,4.82,0,0,1-.62,0c-.75,0-1.11-.13-1.09-.25a.37.37,0,0,1-.06-.29v-.06a.65.65,0,0,1,.34-.41,2.24,2.24,0,0,0,1,.29,1,1,0,0,0,.62-.2h0a4.74,4.74,0,0,0-1.19-.39c-.58-.18-.85-.4-.8-.66v0a1.36,1.36,0,0,1,1-.93,1.94,1.94,0,0,1,.75-.18"/><path class="cls-1" d="M109.51,59.17h0c.23.06.32.16.3.3v0c0,.23-.24.41-.6.55h-.12a.28.28,0,0,1-.29-.27v-.13a.6.6,0,0,1,.37-.43Z"/><path class="cls-1" d="M117,53.24c.24,0,.36.09.36.25s0,.1,0,.24l-.12.86c0,.26-.2,1.13-.46,2.61,0,.22,0,.32,0,.32.8.11,1.2.28,1.22.51s-.19.3-.44.3h-.07a2.49,2.49,0,0,1-.8-.08h0l0,0s0,.14,0,.4,0,0-.19,1.35v.12h0a.72.72,0,0,1-.5.16c-.23,0-.33,0-.31-.14a10.1,10.1,0,0,1,.16-1.33,1.72,1.72,0,0,0,0-.5h-.25l-1.26,0c-.08.59-.3,1.58-.33,1.74-.07.44-.18.65-.33.65l-.36,0-.15,0c-.11,0,.07-.9.21-1.48a2.55,2.55,0,0,0,.08-.88h-.09l-.12,0c-.38,0-.6-.07-.66-.19a.14.14,0,0,1,0-.12q.09-.42.24-.42h.56c.13,0,.2,0,.2,0,.12-1.06.27-2.19.46-3.38v0c.15-.56.31-.84.46-.84h.15c.25,0,.37.05.36.13a.31.31,0,0,1,0,.24l-.12.52c-.09.45-.24,1.45-.45,3l0,.32h.08a7.71,7.71,0,0,0,1.45-.11c.3-1.86.48-3.08.55-3.65l0-.09a.61.61,0,0,1,.43-.54Z"/><path class="cls-1" d="M119.1,56.75c.43,0,.72.27.88.8a1.75,1.75,0,0,1,0,.4c-.08.39-.46.71-1.15,1h0a.6.6,0,0,0,.58.41,2.19,2.19,0,0,0,1.36-.86,1.33,1.33,0,0,1,.66-.42h0l0,0,0,.11,0,.05a.07.07,0,0,0,0,0s.1,0,.14-.13h0a1.7,1.7,0,0,1-.5.66,1.36,1.36,0,0,0-.13.24c-.12,0-.18.07-.2.13a2.44,2.44,0,0,1-1.16.78,1.73,1.73,0,0,1-.37,0h-.12c-.6,0-1.11-.42-1.52-1.25v0l.12-.94,0-.09a.9.9,0,0,1,.54-.74,1.9,1.9,0,0,1,.79-.22m-.61,1.16a.47.47,0,0,0,.11.5,1,1,0,0,0,.47-.22,1.07,1.07,0,0,0,.1-.23.41.41,0,0,0-.23-.5h-.1q-.18,0-.21.12a.83.83,0,0,0-.14.34"/><path class="cls-1" d="M123.69,56.67h.06q.24,0,.24.39a9.65,9.65,0,0,0,0,1.33,2.54,2.54,0,0,0,.32,1.06.69.69,0,0,1,.11.46V60c0,.1-.09.14-.21.14a.94.94,0,0,1-.25.11,1,1,0,0,1-.51-.52,10.83,10.83,0,0,1-.28-1.12l-.06-.09a10.35,10.35,0,0,1-1,1,1.52,1.52,0,0,1-1,.4.5.5,0,0,1-.55-.5l0-.15v-.05a3.51,3.51,0,0,1,1.21-1.66,7.73,7.73,0,0,1,1.43-.75.86.86,0,0,1,.44-.15m-2.19,2.44v0h0c.2,0,.43-.17.69-.5a2.55,2.55,0,0,0,.76-1v0h0a3.75,3.75,0,0,0-.9.63,1.78,1.78,0,0,0-.53.9"/><path class="cls-1" d="M126.24,53.33h.05c.15,0,.22.06.2.19a5.66,5.66,0,0,1-.11.95l-.51,2.17,0,.23a16,16,0,0,0-.25,2.71l0,.16c0,.18-.1.29-.2.32a1.47,1.47,0,0,0-.38.08,1,1,0,0,0-.21-.18,22,22,0,0,1,.33-3.32l.08-.41a11.56,11.56,0,0,1,.52-1.83s0-.1,0-.31l-.09-.07s.13-.18.24-.53a.77.77,0,0,1,.41-.16"/><path class="cls-1" d="M129.77,54.47h.11c.21,0,.31.05.28.17l0,.23c0,.09-.14.45-.37,1.07l-.06.26a15,15,0,0,0,2.2-1.06l.57-.37c.39,0,.56.13.53.28v.07c0,.17-.42.43-1.14.77-.39.22-1,.53-1.85.93a2.22,2.22,0,0,0-.46.18l-.06.18c0,.19.08.36.35.5A12.05,12.05,0,0,0,131.44,59a1.82,1.82,0,0,0,.9.4c.4,0,.59,0,.58.11s.08.14.05.28a1.87,1.87,0,0,1-.72.17h-.11A3.67,3.67,0,0,1,130,58.83a3.3,3.3,0,0,0-.62-.39l0,.06,0,.06c0,.13-.06.56-.11,1.3l-.05.27a.5.5,0,0,1-.36.16h-.07c-.19,0-.28-.07-.27-.14l.09-1.57c.08-.5.08-.77,0-.82a2.39,2.39,0,0,0-.44-.4.39.39,0,0,1-.09-.32l0-.1c0-.07.22-.18.63-.32l.23-.14,0-.24L129,56a6.13,6.13,0,0,1,.52-1.45.64.64,0,0,1,.23-.05"/><path class="cls-1" d="M134.73,55.38h.07c.21,0,.32.06.35.16v.13h0c0,.16-.22.27-.57.32h-.08q-.36,0-.33-.21v0l0-.07a.54.54,0,0,1,.53-.29m-.22,1.21c.17,0,.24,0,.22.12a8.33,8.33,0,0,1-.18,1.66l-.06.35L134.21,60a.91.91,0,0,1-.32.11l-.11.09h0c-.07,0-.12-.05-.16-.15s0,.07,0,.07-.11-.34-.05-.69l.4-1.46c0-.21.08-.5.15-.88s.22-.5.45-.5"/><path class="cls-1" d="M138.19,54.9h.13c0,.06,0,.11.13.15s.06.37,0,.94l-.22,1,0,.13a4,4,0,0,0,.22,2c.12.18.18.31.16.4v.08a1.27,1.27,0,0,1-.28.36h-.2c-.28,0-.44-.18-.49-.55a.92.92,0,0,0-.2-.41,2.11,2.11,0,0,1-.82.72,3.38,3.38,0,0,1-1.46.31,1.68,1.68,0,0,1-.26-.24,3.25,3.25,0,0,1,0-.41l0-.07c0-.23.36-.59,1-1.09a3.06,3.06,0,0,1,1.27-.64.27.27,0,0,0,.19-.21c.1-1,.18-1.57.23-1.86l.07-.33.46-.3.13,0m-2.48,4.45h.11c.35,0,.69-.27,1-.82a.7.7,0,0,0,.1-.19,1.88,1.88,0,0,0-1,.62,1.68,1.68,0,0,0-.27.38"/><path class="cls-1" d="M140.61,57h.1q.45,0,.45.21a.32.32,0,0,1-.38.47c-.61.09-.92.16-.93.23s.25.25.59.35a5.91,5.91,0,0,1,1.25.4.55.55,0,0,1,.27.59c-.09.41-.51.69-1.29.83a4.82,4.82,0,0,1-.62,0c-.75,0-1.11-.13-1.08-.25a.34.34,0,0,1-.07-.29l0-.06a.63.63,0,0,1,.33-.41,2.24,2.24,0,0,0,1,.29,1,1,0,0,0,.62-.2h0a4.6,4.6,0,0,0-1.19-.39c-.58-.18-.85-.4-.8-.66v0a1.36,1.36,0,0,1,1-.93,1.94,1.94,0,0,1,.75-.18"/><path class="cls-1" d="M142.84,59.17h0c.23.06.32.16.3.3v0c0,.23-.24.41-.59.55h-.13a.28.28,0,0,1-.29-.27v-.13a.6.6,0,0,1,.37-.43Z"/><path class="cls-1" d="M71.2,37.64a6.37,6.37,0,0,0-1.91,4.68v6.94a2,2,0,0,0,2,2.05,2,2,0,0,0,1.49-.57,2,2,0,0,0,.58-1.48V42.31a2.22,2.22,0,0,1,.69-1.69,2.72,2.72,0,0,1,1.72-.75c1.41-.13,2.11-.82,2.11-2.08a2,2,0,0,0-2.05-2,6.39,6.39,0,0,0-4.68,1.89"/><path class="cls-1" d="M56.42,32.73a2.05,2.05,0,0,0-.56,1.49v10.5a6.46,6.46,0,0,0,6.59,6.59h1.94a1.82,1.82,0,0,0,2-2.08,1.92,1.92,0,0,0-2-2H62.45A2.46,2.46,0,0,1,60,44.72V40h4.41a1.82,1.82,0,0,0,2-2.08,1.92,1.92,0,0,0-2-2H60V34.22a2,2,0,0,0-.58-1.49,2,2,0,0,0-1.5-.58,2,2,0,0,0-1.48.58"/><path class="cls-1" d="M84.33,46.1a3.61,3.61,0,0,1-1.07-2.62,3.55,3.55,0,0,1,1.07-2.6,3.51,3.51,0,0,1,2.59-1.08,3.69,3.69,0,0,1,3.7,3.7v3.69h-3.7a3.48,3.48,0,0,1-2.59-1.09m-2.94-8.17a8,8,0,0,0,0,11.12,7.5,7.5,0,0,0,5.53,2.26h5.74a3.79,3.79,0,0,0,1.5-.57,2,2,0,0,0,.57-1.49V43.51a7.85,7.85,0,0,0-13.34-5.58"/><path class="cls-1" d="M104.69,30.15a2,2,0,0,0-.56,1.44V49.3a2,2,0,0,0,.56,1.44,2,2,0,0,0,1.48.57,2.06,2.06,0,0,0,1.5-.57,2,2,0,0,0,.58-1.48V31.63a1.83,1.83,0,0,0-2.08-2.05,2,2,0,0,0-1.48.57"/><path class="cls-1" d="M125.4,29.46a6.36,6.36,0,0,0-4.7,1.9,6.43,6.43,0,0,0-1.89,4.72V49.23a2.06,2.06,0,0,0,.57,1.5,2,2,0,0,0,1.48.58,2,2,0,0,0,2.07-2.08V44.58h3.12a2,2,0,0,0,1.48-.57,2.05,2.05,0,0,0,.56-1.49,1.82,1.82,0,0,0-2-2.08h-3.12V36.08a2.4,2.4,0,0,1,.72-1.76,2.36,2.36,0,0,1,1.75-.72h1.08a1.91,1.91,0,0,0,2-2.06,1.91,1.91,0,0,0-2-2.08Z"/><path class="cls-1" d="M134.21,43.48a3.55,3.55,0,0,1,1.07-2.6,3.62,3.62,0,0,1,3.38-1l-4.4,4.17a3.68,3.68,0,0,1,0-.58m-1.87-5.55a8,8,0,0,0,0,11.12,7.5,7.5,0,0,0,5.53,2.26h2.72a2,2,0,0,0,1.48-.58,2.05,2.05,0,0,0,.56-1.5,2,2,0,0,0-.56-1.48,2,2,0,0,0-1.48-.56h-2.72a4,4,0,0,1-.86-.1l6.24-5.92a2,2,0,0,0,.88-1.69,2,2,0,0,0-.61-1.41,7.92,7.92,0,0,0-11.18-.14"/><path class="cls-1" d="M28.15,43.48a3.55,3.55,0,0,1,1.07-2.6,3.62,3.62,0,0,1,3.38-1l-4.4,4.17a3.68,3.68,0,0,1-.05-.58m-1.87-5.55a8,8,0,0,0,0,11.12,7.5,7.5,0,0,0,5.53,2.26h2.72A2,2,0,0,0,36,50.73a2.05,2.05,0,0,0,.56-1.5A2,2,0,0,0,36,47.75a2,2,0,0,0-1.48-.56H31.81a4,4,0,0,1-.86-.1l6.24-5.92a2.07,2.07,0,0,0,.88-1.69,2,2,0,0,0-.61-1.41,7.92,7.92,0,0,0-11.18-.14"/><path class="cls-1" d="M52.09,51.31a2.25,2.25,0,0,1-1.36-.53,7.06,7.06,0,0,1-1.16-1.26L46.8,46.05,44,49.52a6.89,6.89,0,0,1-1.16,1.27,2,2,0,0,1-1.29.52A2.45,2.45,0,0,1,40,50.7a1.61,1.61,0,0,1-.63-1.25,3.56,3.56,0,0,1,.89-1.88l3.58-4.48-3.16-3.62a3.19,3.19,0,0,1-.91-1.95,1.56,1.56,0,0,1,.6-1.22,2.3,2.3,0,0,1,1.5-.61,2.19,2.19,0,0,1,1.35.55,7.21,7.21,0,0,1,1.14,1.24l2.45,3.27,2.38-3.27a7.49,7.49,0,0,1,1.16-1.26,2.12,2.12,0,0,1,1.31-.5,2.47,2.47,0,0,1,1.53.57,1.55,1.55,0,0,1,.62,1.23,2,2,0,0,1-.24,1,6.89,6.89,0,0,1-.7,1L49.7,43.09l3.59,4.48a3.71,3.71,0,0,1,.92,1.91,1.55,1.55,0,0,1-.63,1.24A2.36,2.36,0,0,1,52.09,51.31Z"/><path class="cls-1" d="M146.36,35.53v.25h-.73v1.9h-.29v-1.9h-.73v-.25Z"/><path class="cls-1" d="M146.62,35.53H147l.62,1.82.61-1.82h.42v2.15h-.28V36.19c0-.1,0-.21,0-.33l-.62,1.82h-.29l-.62-1.82v.31c0,.11,0,.19,0,.24v1.27h-.28Z"/><path class="cls-1" d="M157.2,53.87l-6.26-7.15a1.09,1.09,0,0,0-1.53-.1l-7.15,6.26a1.08,1.08,0,0,0-.1,1.53l6.26,7.15a1.08,1.08,0,0,0,1.53.1l7.14-6.26A1.08,1.08,0,0,0,157.2,53.87Zm-11.15.52a1,1,0,1,1,.09-1.37A1,1,0,0,1,146.05,54.39Zm2.09,2.39a1,1,0,1,1,.09-1.37A1,1,0,0,1,148.14,56.78Zm2.09,2.39A1,1,0,0,1,149,57.71a1,1,0,0,1,1.28,1.46Zm.34-8.58a1,1,0,1,1,.09-1.36A1,1,0,0,1,150.57,50.59ZM152.66,53a1,1,0,0,1-1.36-.09,1,1,0,0,1,.09-1.37,1,1,0,0,1,1.37.1A1,1,0,0,1,152.66,53Zm2.1,2.39a1,1,0,0,1-1.37-.09,1,1,0,0,1,.09-1.37,1,1,0,0,1,1.28,1.46Z"/><path class="cls-1" d="M159.91,47.93l-1.66-9.36a1.09,1.09,0,0,0-1.26-.88l-9.35,1.66a1.09,1.09,0,0,0-.88,1.26l1.18,6.67,1.35-1.18a1.3,1.3,0,0,1,1.78.12L154.39,50l4.64-.83A1.08,1.08,0,0,0,159.91,47.93Zm-10.18-5.15a1,1,0,1,1,.79-1.13A1,1,0,0,1,149.73,42.78Zm3.77,2.55a1,1,0,0,1-.34-1.91,1,1,0,0,1,1.13.79A1,1,0,0,1,153.5,45.33Zm3.77,2.56a1,1,0,0,1-1.12-.79,1,1,0,0,1,.78-1.12,1,1,0,0,1,.34,1.91Z"/><path class="cls-1" d="M55.31,26V22.66l-4.77-4.77h3.34l2.62,2.63,2.62-2.63h3.34l-4.77,4.77V26Z"/><path class="cls-1" d="M65,26V22.66l-4.77-4.77h3.34l2.62,2.63,2.62-2.63h3.34l-4.77,4.77V26Z"/><path class="cls-1" d="M71,26V17.89h10.5v2.39H73.34v3.34h8.11V26Z"/></svg>