<?xml version="1.0" standalone="no"?>
<!DOCTYPE svg PUBLIC "-//W3C//DTD SVG 20010904//EN"
 "http://www.w3.org/TR/2001/REC-SVG-20010904/DTD/svg10.dtd">
<svg version="1.0" xmlns="http://www.w3.org/2000/svg"
 width="260.000000pt" height="260.000000pt" viewBox="0 0 260.000000 260.000000"
 preserveAspectRatio="xMidYMid meet">
<metadata>
Created by potrace 1.11, written by Peter Selinger 2001-2013
</metadata>
<g transform="translate(0.000000,260.000000) scale(0.100000,-0.100000)"
fill="#000000" stroke="none">
<path d="M2220 2380 c-1 -8 -3 -22 -4 -30 -2 -8 -6 -37 -10 -65 -11 -88 -36
-172 -36 -122 0 34 -16 24 -18 -11 -2 -20 -4 -44 -6 -52 -14 -73 -74 -202 -77
-165 -2 33 -17 -23 -18 -68 -1 -31 9 -52 45 -103 75 -105 70 -167 -20 -269
-37 -41 -44 -38 -25 12 9 24 8 26 -4 13 -24 -26 -48 -102 -54 -172 -3 -38 -9
-67 -12 -65 -55 30 -93 41 -143 41 -32 -1 -64 -6 -72 -13 -7 -6 -36 -23 -62
-37 -27 -14 -61 -32 -75 -40 -32 -17 -261 -87 -365 -111 l-73 -17 15 -28 c8
-15 12 -28 10 -28 -3 0 -13 14 -22 31 l-16 31 -76 -7 c-118 -11 -155 -33 -200
-118 l-20 -38 -30 43 c-37 53 -74 88 -132 123 l-45 28 30 -32 30 -33 -30 7
c-53 12 -138 59 -160 88 -17 24 -20 44 -21 133 l0 105 -38 37 c-23 24 -34 30
-30 18 7 -18 5 -18 -32 4 -69 42 -107 74 -146 124 -35 45 -39 46 -33 20 7 -27
3 -25 -46 26 -30 31 -69 73 -87 95 l-32 40 6 -35 c4 -19 15 -55 25 -79 11 -24
18 -46 16 -47 -2 -2 -16 17 -32 42 -16 25 -33 47 -38 51 -11 6 29 -72 55 -109
24 -35 9 -37 -22 -3 -13 14 -27 25 -31 25 -14 0 30 -93 64 -135 l32 -40 -30
19 c-17 10 -48 32 -70 49 -36 26 -35 24 12 -22 56 -55 57 -59 13 -36 -17 9
-30 12 -30 9 0 -16 50 -90 69 -104 40 -28 20 -30 -31 -3 -29 15 -57 30 -63 32
-20 8 45 -40 87 -64 l43 -25 -42 6 c-24 3 -43 2 -43 -3 0 -10 42 -51 80 -77
25 -17 25 -18 -24 -11 -27 3 -53 8 -58 11 -4 3 -8 3 -8 -1 0 -7 43 -24 83 -30
46 -9 45 -13 -2 -21 -39 -6 -41 -8 -27 -23 9 -8 35 -23 59 -33 32 -13 37 -17
20 -19 -36 -3 -41 -4 -48 -10 -3 -4 18 -5 47 -4 l53 3 -50 -23 -49 -24 28 -11
c16 -6 39 -11 53 -12 22 -2 23 -4 7 -15 -10 -7 -28 -13 -40 -13 -13 0 -25 -4
-28 -9 -5 -8 66 2 107 15 28 9 20 -3 -19 -27 -34 -21 -35 -23 -16 -30 19 -7
60 -5 90 6 25 9 11 -4 -30 -29 -48 -29 -45 -33 9 -11 49 21 53 19 18 -10 l-30
-24 32 -1 c17 0 44 5 60 10 27 10 26 9 -9 -25 -43 -40 -40 -46 6 -12 52 39 63
42 31 8 l-30 -32 34 6 c19 3 42 10 52 15 36 20 33 9 -6 -27 l-40 -36 54 37
c50 36 57 33 22 -7 -15 -17 -14 -18 14 -11 17 4 42 13 58 21 15 7 27 11 27 7
0 -4 7 -1 15 6 12 10 13 7 5 -22 -6 -18 -10 -34 -10 -35 0 -7 58 21 74 35 18
16 19 16 13 -13 l-6 -30 14 33 c19 42 28 41 22 -3 -5 -39 -5 -40 26 -23 27 14
42 29 50 48 3 8 6 -5 8 -30 l2 -45 6 40 7 40 8 -33 c5 -23 12 -32 22 -28 11 4
14 -8 15 -62 0 -37 2 -78 5 -92 32 -191 131 -352 233 -380 73 -20 97 9 131
158 30 135 31 137 94 137 61 0 90 19 112 72 12 28 23 35 91 56 127 40 139 41
169 18 38 -30 104 -28 142 4 17 14 33 25 37 25 4 0 44 -35 89 -78 97 -94 122
-112 156 -112 83 0 131 178 93 344 -18 82 -60 179 -72 171 -5 -3 -8 3 -7 12 2
10 0 20 -3 23 -17 14 -40 69 -30 72 7 2 7 12 -1 33 l-11 30 26 -30 26 -30 -21
38 c-19 37 -20 37 -1 27 21 -11 74 -14 84 -4 3 3 -3 15 -13 27 -24 26 -19 32
31 33 91 3 86 0 53 35 -23 26 -25 29 -7 20 28 -14 55 -15 33 -1 -13 9 -13 10
0 10 8 0 33 5 55 11 l39 11 -32 14 c-18 7 -32 14 -32 16 0 2 19 3 43 2 23 -1
30 1 15 3 -16 2 -28 9 -28 15 0 6 3 9 6 6 3 -4 27 1 52 10 l47 16 -35 10 -35
10 45 7 c38 5 40 6 13 7 -34 2 -47 22 -15 22 9 0 31 9 47 20 l30 20 -27 0
c-36 0 -47 20 -11 21 15 0 37 4 48 9 14 6 8 8 -22 5 -24 -3 -43 -1 -43 3 0 4
19 18 41 31 45 25 40 41 -11 35 -50 -6 -42 13 10 26 28 7 52 16 55 20 3 5 -9
5 -27 -1 -52 -14 -54 -11 -20 24 18 18 32 36 32 39 0 4 -21 5 -47 2 l-48 -5
52 30 c28 17 55 36 59 43 6 10 5 11 -7 1 -9 -7 -32 -20 -53 -28 l-38 -16 25
33 c23 31 44 78 34 78 -3 0 -22 -7 -43 -16 l-39 -16 41 44 c65 69 73 87 17 36
-58 -53 -71 -60 -48 -25 8 13 18 46 21 73 l7 49 -24 -21 c-43 -38 -51 -37 -26
2 24 39 42 84 34 84 -3 0 -17 -20 -31 -45 -15 -25 -29 -45 -32 -45 -3 0 -3 4
0 8 10 16 18 131 11 143 -6 8 -14 1 -27 -22 -10 -19 -16 -25 -14 -14 16 62 24
110 21 113 -2 3 -7 -9 -11 -24 -4 -16 -15 -47 -25 -68 l-17 -39 -1 75 c-1 77
-14 137 -24 108 -3 -8 -10 -28 -15 -45 -10 -27 -11 -25 -12 30 -1 33 -2 63 -1
68 0 4 -4 7 -9 7 -6 0 -9 -10 -7 -22 2 -13 0 -39 -4 -58 l-6 -35 -2 35 c-2 39
-38 153 -41 130z m-558 -1192 c2 -21 0 -38 -4 -38 -4 0 -8 21 -7 48 1 52 6 48
11 -10z m153 -38 c10 -11 16 -20 13 -20 -3 0 -13 9 -23 20 -10 11 -16 20 -13
20 3 0 13 -9 23 -20z m-150 -50 c3 -5 1 -10 -4 -10 -6 0 -11 5 -11 10 0 6 2
10 4 10 3 0 8 -4 11 -10z m330 -20 c-22 -25 -48 -26 -66 -2 -11 14 -11 15 1 5
21 -19 48 -16 62 7 7 10 14 17 17 15 2 -3 -4 -14 -14 -25z m-188 -22 c-3 -7
-5 -2 -5 12 0 14 2 19 5 13 2 -7 2 -19 0 -25z m-39 -26 c17 2 29 1 26 -4 -14
-23 -84 -1 -84 26 0 5 6 2 13 -8 10 -14 23 -17 45 -14z m-534 -8 c3 -8 2 -12
-4 -9 -6 3 -10 10 -10 16 0 14 7 11 14 -7z m351 -9 c0 -13 -41 -19 -63 -10
-15 6 -15 8 3 16 25 10 60 7 60 -6z m336 -66 c-23 -19 -54 -15 -73 10 -12 14
-11 14 4 3 9 -7 29 -12 45 -10 23 2 29 9 32 33 4 28 5 28 9 5 3 -16 -3 -30
-17 -41z m236 29 c-3 -7 -5 -2 -5 12 0 14 2 19 5 13 2 -7 2 -19 0 -25z m-732
3 c6 -11 -26 -31 -49 -31 -24 0 -19 19 7 30 29 12 35 12 42 1z m-257 -25 c11
-11 10 -14 -10 -19 -38 -10 -43 -8 -50 19 -6 24 -5 25 20 19 15 -3 33 -12 40
-19z m1002 -103 c0 -58 -3 -104 -6 -101 -8 9 -10 208 -1 208 4 0 7 -48 7 -107z
m-1136 40 c-42 -30 -52 -3 -15 40 14 17 16 17 24 -5 6 -17 4 -26 -9 -35z m815
-21 c13 -10 31 -29 39 -42 9 -16 5 -14 -12 7 -30 35 -84 58 -118 48 -18 -5
-20 -4 -8 5 19 14 68 5 99 -18z m-741 6 c-6 -18 -28 -21 -28 -4 0 9 7 16 16
16 9 0 14 -5 12 -12z m102 -3 c0 -14 -29 -73 -39 -79 -6 -4 -14 7 -19 26 -8
30 -6 34 17 45 30 13 41 15 41 8z m57 -37 c-3 -7 -5 -2 -5 12 0 14 2 19 5 13
2 -7 2 -19 0 -25z m529 0 c4 -6 1 -9 -7 -6 -8 3 -26 -1 -41 -9 -30 -15 -38 -7
-12 11 21 16 52 17 60 4z m-712 -50 c8 -34 2 -34 -44 -6 l-35 21 30 13 c34 14
40 11 49 -28z m129 -38 c-23 -22 -48 -40 -55 -40 -7 0 1 8 17 19 17 10 39 28
49 40 11 11 22 21 25 21 3 0 -13 -18 -36 -40z m56 -13 c-19 -13 -39 -38 -46
-57 -10 -28 -12 -30 -12 -11 -1 24 57 91 79 91 7 0 -2 -10 -21 -23z m296 3
c-38 -11 -71 -17 -73 -15 -2 2 16 9 39 15 24 6 49 13 54 15 6 2 19 3 30 3 11
0 -11 -8 -50 -18z m-551 -19 c-2 -3 -12 3 -22 13 -16 17 -16 18 5 5 12 -7 20
-15 17 -18z m818 -11 c-18 -17 -38 -30 -45 -30 -6 0 2 9 19 19 18 11 35 24 38
30 4 6 10 11 14 11 4 0 -8 -14 -26 -30z m-736 -8 c-27 -2 -52 0 -57 5 -4 4 18
6 49 3 l57 -5 -49 -3z m264 7 c13 -9 12 -10 -3 -5 -10 3 -35 -1 -55 -9 l-37
-15 24 20 c26 22 49 25 71 9z m110 1 c-8 -5 -19 -10 -25 -10 -5 0 -3 5 5 10 8
5 20 10 25 10 6 0 3 -5 -5 -10z m295 -20 c3 -6 -1 -7 -9 -4 -18 7 -21 14 -7
14 6 0 13 -4 16 -10z m-548 -72 c-3 -8 -6 -5 -6 6 -1 11 2 17 5 13 3 -3 4 -12
1 -19z m-225 -158 l29 -45 -30 34 c-29 33 -101 160 -101 177 0 5 16 -20 36
-56 20 -36 50 -85 66 -110z m404 122 c-17 -16 -18 -16 -5 5 7 12 15 20 18 17
3 -2 -3 -12 -13 -22z m-26 -16 c0 -2 -7 -7 -16 -10 -8 -3 -12 -2 -9 4 6 10 25
14 25 6z"/>
<path d="M2271 2354 c0 -11 3 -14 6 -6 3 7 2 16 -1 19 -3 4 -6 -2 -5 -13z"/>
<path d="M1545 1724 c-57 -12 -198 -62 -260 -92 -222 -108 -425 -296 -425
-394 0 -141 305 -87 600 107 188 124 297 258 270 331 -16 42 -103 65 -185 48z
m113 -46 c21 -21 13 -52 -26 -100 -121 -151 -457 -338 -637 -355 -57 -5 -63
-4 -78 17 -15 22 -15 26 6 63 71 127 404 334 612 380 42 10 111 7 123 -5z"/>
<path d="M2200 1246 c0 -2 12 -12 28 -21 l27 -18 -19 21 c-17 20 -36 29 -36
18z"/>
<path d="M575 793 l-17 -28 23 22 c12 12 20 25 17 28 -3 3 -13 -7 -23 -22z"/>
</g>
</svg>
