<svg id="Layer_1" data-name="Layer 1" xmlns="http://www.w3.org/2000/svg" viewBox="0 0 160 81"><defs><style>.cls-1{fill:#fff;}</style></defs><path class="cls-1" d="M110.28,44.68a1.88,1.88,0,0,0-.53,1.4V56.89a1.84,1.84,0,0,0,1.92,1.94,1.91,1.91,0,0,0,1.41-.54,1.84,1.84,0,0,0,.55-1.4V46.08a1.72,1.72,0,0,0-2-1.93,1.89,1.89,0,0,0-1.39.53m-.29-6a2.4,2.4,0,0,0,1.68,4.08,2.34,2.34,0,0,0,1.69-.71,2.38,2.38,0,0,0,0-3.37,2.33,2.33,0,0,0-1.69-.7,2.29,2.29,0,0,0-1.68.7"/><path class="cls-1" d="M27.51,28.6c-3.62,2-7,2.9-7.55,1.93s1.94-3.43,5.55-5.47,7-2.9,7.54-1.93-1.93,3.42-5.54,5.47M34,22.89c-.79-1.41-4.73-.68-8.8,1.62s-6.73,5.3-5.94,6.7,4.74.68,8.81-1.62,6.72-5.3,5.93-6.7"/><path class="cls-1" d="M21.39,36.73a1.69,1.69,0,0,1,.23-.65,1.91,1.91,0,0,1,.43-.55A2.05,2.05,0,0,1,23.37,35a2.2,2.2,0,0,1,.68.11,2,2,0,0,1,.58.37,1.62,1.62,0,0,1,.4.61,1.6,1.6,0,0,1,.12.75,1.93,1.93,0,0,1-.19.74,2,2,0,0,1-2,1.16,1.84,1.84,0,0,1-.7-.21,1.7,1.7,0,0,1-.54-.46,1.58,1.58,0,0,1-.3-.64,1.71,1.71,0,0,1,0-.71m-.19.79a1.83,1.83,0,0,0,.94,1.25,2,2,0,0,0,.8.24,2,2,0,0,0,.9-.11,2.19,2.19,0,0,0,.81-.47,2.42,2.42,0,0,0,.55-.73,2.28,2.28,0,0,0,.22-.85,2.11,2.11,0,0,0-.14-.85,1.89,1.89,0,0,0-.47-.67,1.93,1.93,0,0,0-.65-.41,2,2,0,0,0-.77-.12,2,2,0,0,0-.78.16,2.41,2.41,0,0,0-.69.42,2.58,2.58,0,0,0-.49.61,2.2,2.2,0,0,0-.26.73,2,2,0,0,0,0,.8m.75-.58.15.56-.34-.19Zm.81-1.48.36.13-.56.22Zm.58,1,.1.07a.45.45,0,0,1,.06.12.25.25,0,0,1,0,.12.28.28,0,0,1,0,.13.44.44,0,0,1-.09.11l-.12.07-.13,0-.12,0a.25.25,0,0,1-.1-.08.2.2,0,0,1-.06-.11.28.28,0,0,1,0-.13.19.19,0,0,1,0-.12.35.35,0,0,1,.08-.1.41.41,0,0,1,.11-.07.32.32,0,0,1,.13,0l.13,0m.52,1.38-.22.39-.4-.18Zm.79-1.62-.18.39-.2-.57Zm-3,1.59a.08.08,0,0,0,0,0l0,0h.1l1-.37.31,1.06,0,0s0,0,0,0l.05,0h.05l.93-.32a.05.05,0,0,0,0,0l0,0s0,0,0,0a.13.13,0,0,0,0-.06l-.36-1.07L25,36.73l.05,0s0,0,0,0,0,0,0,0a.07.07,0,0,0,0,0l-.32-.83,0,0a.05.05,0,0,0,0,0h-.11l-1,.39-.3-.91,0,0a.05.05,0,0,0,0,0H23.1l-.81.32,0,0,0,0a.08.08,0,0,0,0,0s0,0,0,0l.26.91-1,.37,0,0a.05.05,0,0,0,0,0,.08.08,0,0,0,0,.05v0Zm13.59-4.75a.86.86,0,0,0-.2-.18,1,1,0,0,0-.26-.09.72.72,0,0,0-.29,0,.79.79,0,0,0-.27.1,1.29,1.29,0,0,0-.21.19,1.15,1.15,0,0,0-.12.25.87.87,0,0,0,0,.28.71.71,0,0,0,.11.25.52.52,0,0,0,.2.19.63.63,0,0,0,.27.1.81.81,0,0,0,.31,0,1.18,1.18,0,0,0,.28-.12.8.8,0,0,0,.2-.21.71.71,0,0,0,.11-.25.61.61,0,0,0,0-.27.83.83,0,0,0-.12-.25m3.32-.69a.87.87,0,0,0-.21-.17.67.67,0,0,0-.25-.08.61.61,0,0,0-.27,0,.64.64,0,0,0-.24.1.58.58,0,0,0-.17.18.54.54,0,0,0-.09.22.58.58,0,0,0,0,.26.56.56,0,0,0,.13.24.91.91,0,0,0,.21.18.62.62,0,0,0,.27.09.66.66,0,0,0,.28,0,1,1,0,0,0,.25-.11.56.56,0,0,0,.16-.19.49.49,0,0,0,.08-.24.77.77,0,0,0,0-.25.68.68,0,0,0-.14-.23m-2.43-.18a.69.69,0,0,0,.25-.1.73.73,0,0,0,.18-.17.85.85,0,0,0,.09-.22.62.62,0,0,0,0-.23.53.53,0,0,0-.12-.22.58.58,0,0,0-.19-.15.82.82,0,0,0-.51-.08.85.85,0,0,0-.24.09.69.69,0,0,0-.18.16.67.67,0,0,0-.1.21.49.49,0,0,0,0,.24.57.57,0,0,0,.11.22.82.82,0,0,0,.2.17.92.92,0,0,0,.25.09.89.89,0,0,0,.28,0m1.29,2.14a1.3,1.3,0,0,0-.22-.19.92.92,0,0,0-.28-.09.71.71,0,0,0-.29,0,1.11,1.11,0,0,0-.27.12.72.72,0,0,0-.3.48.76.76,0,0,0,0,.3.9.9,0,0,0,.13.28.93.93,0,0,0,.23.21.67.67,0,0,0,.28.1.65.65,0,0,0,.31,0,.66.66,0,0,0,.28-.13.79.79,0,0,0,.19-.22.71.71,0,0,0,.09-.28.76.76,0,0,0,0-.3.87.87,0,0,0-.14-.27M38.88,33a.66.66,0,0,1-.09.28.55.55,0,0,1-.2.23.83.83,0,0,1-.3.14,1.36,1.36,0,0,1-.35,0,1,1,0,0,1-.32-.12.92.92,0,0,1-.26-.22A.9.9,0,0,1,37.2,33a.66.66,0,0,1,0-.31.56.56,0,0,1,.1-.28.72.72,0,0,1,.5-.33,1.22,1.22,0,0,1,.33,0,1.08,1.08,0,0,1,.3.11.82.82,0,0,1,.25.2.77.77,0,0,1,.17.27.74.74,0,0,1,.05.32M37.74,35a1,1,0,0,1-.11.33.87.87,0,0,1-.23.27.84.84,0,0,1-.34.17,1,1,0,0,1-.38,0,.87.87,0,0,1-.35-.13.81.81,0,0,1-.27-.25.89.89,0,0,1-.16-.34,1,1,0,0,1,.11-.7,1.09,1.09,0,0,1,.24-.24,1,1,0,0,1,.33-.15.87.87,0,0,1,.36,0,1,1,0,0,1,.32.12.75.75,0,0,1,.27.23.76.76,0,0,1,.17.32.94.94,0,0,1,0,.37M35.27,32.1a.7.7,0,0,1-.14-.27.71.71,0,0,1,0-.29.72.72,0,0,1,.12-.25.83.83,0,0,1,.22-.2,1,1,0,0,1,.3-.11.86.86,0,0,1,.32,0,.77.77,0,0,1,.29.1.84.84,0,0,1,.23.18.76.76,0,0,1,.15.26,1,1,0,0,1,0,.29.66.66,0,0,1-.11.26.84.84,0,0,1-.21.21.86.86,0,0,1-.65.13.89.89,0,0,1-.31-.11.74.74,0,0,1-.23-.2m.23,1.6a.93.93,0,0,1-.13.31.82.82,0,0,1-.25.24,1,1,0,0,1-.34.15,1,1,0,0,1-.7-.11.92.92,0,0,1-.25-.23.82.82,0,0,1-.12-.32.78.78,0,0,1,0-.34.89.89,0,0,1,.15-.29.92.92,0,0,1,.25-.23,1,1,0,0,1,.33-.13.92.92,0,0,1,.66.1.84.84,0,0,1,.24.22.61.61,0,0,1,.14.29.79.79,0,0,1,0,.34m-2,5a.58.58,0,0,0,0,.19,1.43,1.43,0,1,0,2.75-.8,1,1,0,0,0-.11-.28,1.62,1.62,0,0,1,.2.42,1.47,1.47,0,0,1-2.83.82,1.34,1.34,0,0,1,0-.35m1.07-1.4a1.12,1.12,0,0,1,1.22.42,1.51,1.51,0,0,0-2,.58,1.09,1.09,0,0,1,.8-1m-1.67,1.54a13.54,13.54,0,0,0-1.92.39,13.27,13.27,0,0,0-1.83.7L29,39.77A12,12,0,0,1,30.87,39a14,14,0,0,1,2-.39c0,.07,0,.13,0,.2m-2.36-4.61c.31-.06.62-.11.93-.14a.19.19,0,0,1,.22.17s0,.1,0,.15a.21.21,0,0,1-.18.21c-.3,0-.59.08-.89.13a.2.2,0,0,1-.23-.14l0-.15a.2.2,0,0,1,.16-.23m-2.8,8a1.47,1.47,0,0,1-1.82-1,1.45,1.45,0,0,1-.06-.41,2,2,0,0,0,.05.24,1.44,1.44,0,0,0,2.76-.8,1.09,1.09,0,0,0-.09-.23,1.63,1.63,0,0,1,.17.38,1.47,1.47,0,0,1-1,1.82m-.8-2.76a1.12,1.12,0,0,1,1.22.42A1.44,1.44,0,0,0,27,39.83a1.48,1.48,0,0,0-.89.7,1.13,1.13,0,0,1,.8-1M26.25,37A2.92,2.92,0,0,1,26,38.11a3.21,3.21,0,0,1-.74,1,3.25,3.25,0,0,1-1.11.64l-.1,0a3.13,3.13,0,0,1-1.13.11,2.7,2.7,0,0,1-1.07-.35,2.56,2.56,0,0,1-.79-.71,2.37,2.37,0,0,1-.42-1,2.84,2.84,0,0,1,0-1.05,3.07,3.07,0,0,1,.35-.94,2.7,2.7,0,0,1,.22-.33,2.26,2.26,0,0,0-.16.26,3,3,0,0,0-.34.92,2.65,2.65,0,0,0,0,1,2.41,2.41,0,0,0,.41.94,2.36,2.36,0,0,0,.76.68,2.52,2.52,0,0,0,1,.34A2.85,2.85,0,0,0,24,39.55a2.92,2.92,0,0,0,1.07-.62,3,3,0,0,0,.71-1,2.87,2.87,0,0,0,.27-1.11,2.58,2.58,0,0,0-.21-1.09,2.44,2.44,0,0,0-.61-.86,2.56,2.56,0,0,0-.86-.5,3.37,3.37,0,0,0-.34-.09,3.15,3.15,0,0,1,.44.11,2.55,2.55,0,0,1,.89.51,2.5,2.5,0,0,1,.63.88A2.59,2.59,0,0,1,26.25,37m-4.36-1.61a2.28,2.28,0,0,1,.7-.43,2.14,2.14,0,0,1,.81-.17,2.27,2.27,0,0,1,.78.12,2.11,2.11,0,0,1,.67.42,1.87,1.87,0,0,1,.48.69,2.11,2.11,0,0,1-.08,1.75,2.23,2.23,0,0,1-.56.74,2.31,2.31,0,0,1-.83.49,2.34,2.34,0,0,1-.93.12,2.08,2.08,0,0,1-.82-.26,1.89,1.89,0,0,1-1-1.28,2.06,2.06,0,0,1,0-.82,2.4,2.4,0,0,1,.77-1.37m6.93-.07c-.28.11-.55.23-.82.36a.2.2,0,0,1-.26-.09l-.07-.13a.19.19,0,0,1,.09-.26c.29-.14.58-.26.87-.38a.19.19,0,0,1,.25.11l.06.14a.21.21,0,0,1-.12.25M46.48,23.53A3.17,3.17,0,0,0,48.2,22a20,20,0,0,1-2.09.29,11.52,11.52,0,0,0,2.47-1.44,15.65,15.65,0,0,1-2.18,1,3.36,3.36,0,0,0,1.42-2.15,16,16,0,0,1-1.73.74,11.19,11.19,0,0,0,2-2.21,13.74,13.74,0,0,1-2.27,2A4,4,0,0,0,47,17.23a14.4,14.4,0,0,1-1.46,1.27,11.38,11.38,0,0,0,1.48-3,14,14,0,0,1-1.73,2.71,5.31,5.31,0,0,0,.51-3.45,15.77,15.77,0,0,1-1,1.69,11.3,11.3,0,0,0,.83-3,14,14,0,0,1-1.23,3.07,6.73,6.73,0,0,0-.08-3.94s-.23.91-.69,2.14A11,11,0,0,0,43.43,11a13.72,13.72,0,0,1-.2,3.54,8,8,0,0,0-.71-3.8,33.26,33.26,0,0,1-.73,4.47,6.2,6.2,0,0,0-.37-1.1,8.44,8.44,0,0,1-1.14,4.28,2,2,0,0,0-.39,1.14A3.91,3.91,0,0,1,40,18.25c-.67,1.85-.61,1.86.79,3.73a2.72,2.72,0,0,1,.57,2.1,6.2,6.2,0,0,1-1.65,2.55.94.94,0,0,0-.2.43,3.06,3.06,0,0,1,.3-1.68,7.1,7.1,0,0,0-1.21,4.69,3.72,3.72,0,0,0-3.48-.87,2.19,2.19,0,0,0-.33.12.2.2,0,0,0-.11.11,4.52,4.52,0,0,1,3.86,1,.52.52,0,0,1,.11.1.36.36,0,0,1,0,.11,4.36,4.36,0,0,0-5.45-.4l-.34.22A17.86,17.86,0,0,1,32.62,36,4.84,4.84,0,0,1,31.77,38c.92-1.29,1.22-4,.88-7.39a22.07,22.07,0,0,1-3.86,1.28,21.42,21.42,0,0,1-3.94,1c1.53,3,3.23,5.17,4.69,5.77a4.84,4.84,0,0,1-1.76-1.19,18,18,0,0,1-3.17-4.59H24.2a4.41,4.41,0,0,0-4.44,3.43,1.17,1.17,0,0,0-.05-.11,2.65,2.65,0,0,1,.11-.3,4.47,4.47,0,0,1,2.73-2.9.17.17,0,0,0-.15,0l-.35.08a3.81,3.81,0,0,0-2.52,2.75,7.11,7.11,0,0,0-3.59-3.44,3,3,0,0,1,1.15,1.27,1,1,0,0,0-.4-.26A6.12,6.12,0,0,1,13.93,32,2.7,2.7,0,0,1,13.29,30c.18-2.34.23-2.38-1.33-3.59a4.15,4.15,0,0,1,.76,1.08,2.06,2.06,0,0,0-.94-.76,8.37,8.37,0,0,1-3.25-3,6.84,6.84,0,0,0,.27,1.13,33.68,33.68,0,0,1-3-3.39A8,8,0,0,0,7.23,25a14.48,14.48,0,0,1-2.07-2.88A11.28,11.28,0,0,0,7,25.34a22.39,22.39,0,0,1-1.73-1.45,6.87,6.87,0,0,0,2,3.37,14,14,0,0,1-2.68-1.93A11.55,11.55,0,0,0,7,27.46a16.13,16.13,0,0,1-1.78-.87,5.23,5.23,0,0,0,2.27,2.64,14.25,14.25,0,0,1-2.91-1.36,11.43,11.43,0,0,0,2.84,1.71,14.2,14.2,0,0,1-1.92-.29A4,4,0,0,0,8,31.16a13.83,13.83,0,0,1-3-.45,11,11,0,0,0,2.91.77,15,15,0,0,1-1.86.3,3.33,3.33,0,0,0,2.35,1.06,14.86,14.86,0,0,1-2.38.31,11,11,0,0,0,2.85-.1A17.74,17.74,0,0,1,7,33.92a3.1,3.1,0,0,0,2.29.4A13.86,13.86,0,0,1,7,35.08a11.05,11.05,0,0,0,2.84-.63c-.93.73-1.64,1.17-1.64,1.17a3.49,3.49,0,0,0,2.62-.28,15.18,15.18,0,0,1-2.38,1.38,10.79,10.79,0,0,0,2.37-1,15.51,15.51,0,0,1-1.22,1.17,3.84,3.84,0,0,0,2.38-.62,11.57,11.57,0,0,1-1.84,1.59,9,9,0,0,0,2.15-1.52,12.68,12.68,0,0,1-1.1,1.4,3.87,3.87,0,0,0,2.37-1,9,9,0,0,1-1.73,1.69,7.32,7.32,0,0,0,1.92-1.54,9.73,9.73,0,0,1-.79,1.38A3.4,3.4,0,0,0,15,37.13a8.58,8.58,0,0,1-1,1.51A7.56,7.56,0,0,0,15.31,37a6.84,6.84,0,0,1-.5,1.52,2.48,2.48,0,0,0,1.86-1.32,10.31,10.31,0,0,1-.54,1.59,7.45,7.45,0,0,0,.75-1.63,5.42,5.42,0,0,1-.06,1.54c1-.3,1.4-.85,1.43-1.54a9.25,9.25,0,0,1,.1,1.84,7.42,7.42,0,0,0,.12-1.68,7,7,0,0,1,.4,1.49,1.44,1.44,0,0,0,.49-.5c0,.4-.05.81-.05,1.24a11.72,11.72,0,0,0,.46,1.31l0,.13s0-.07,0-.11a15,15,0,0,0,1.65,3c.8,1.18,1.38,2,1,3.51a2.29,2.29,0,0,0,1.83.57c.6-.13.93-1,1.17-1.92a12.17,12.17,0,0,1-.06-2,10.52,10.52,0,0,1,.2-1.89,2.14,2.14,0,0,1-.42-.79,2.1,2.1,0,0,1,1.4-2.63,2.07,2.07,0,0,1,2.06.56,2,2,0,0,0-3.3,2.1,2.14,2.14,0,0,0,.39.75,12.25,12.25,0,0,0-.22,3.64c.16-.66.29-1.36.44-2l.06-.23v0s0,0,0-.06v0s0,0,0-.06,0,0,0,0l0-.09s0,0,0,0l0,0v0s0,0,0,0v0a.08.08,0,0,0,0,0l0,0,0,0s0,0,0-.06l0,0s0,0,0,0v0l0,0s0,0,0,0l0,0v0l.05-.07a2,2,0,0,0,1.43.12,2.06,2.06,0,0,0,1.46-1.71c.33-.15.67-.28,1-.4h0l.23-.08h0l.22-.07h0l.21-.07h0l.21-.06.21-.06h0l.22-.06h0c.48-.12,1-.23,1.56-.31a2,2,0,0,0,3.29-.2l.09,0h0l.05,0h0l0,0h0l0,0h0l0,0h0l.15.1h0l.05,0h0l.22.19h0l.06.05h0a1.54,1.54,0,0,1,.19.17h0c.44.41.93.94,1.41,1.41a11.69,11.69,0,0,0-2.14-3,2,2,0,0,0-.06-.84A2,2,0,0,0,33,37.88a2.05,2.05,0,0,1,1.38-1.38A2.11,2.11,0,0,1,37,38a2.3,2.3,0,0,1,.06.9,10,10,0,0,1,1.17,1.48,11.68,11.68,0,0,1,1,1.68c.72.69,1.44,1.21,2,1a2.31,2.31,0,0,0,1.24-1.47c-1.1-1-1.06-2.08-1-3.51a14.12,14.12,0,0,0-.5-4.74c-.2-.32-.41-.63-.63-.92a1.21,1.21,0,0,0,.49.07A6.74,6.74,0,0,1,40.34,31a6.86,6.86,0,0,0,1,1.36,9.86,9.86,0,0,1-.91-1.61,1.67,1.67,0,0,0,2,.54A5.81,5.81,0,0,1,41.59,30a7.52,7.52,0,0,0,1.51,1,9.66,9.66,0,0,1-1.31-1.06,2.47,2.47,0,0,0,2.28.13,6.73,6.73,0,0,1-1.23-1,7.27,7.27,0,0,0,2,.64A9,9,0,0,1,43.15,29a3.35,3.35,0,0,0,2.37-.19A8.41,8.41,0,0,1,44.11,28a7.16,7.16,0,0,0,2.45.27,9,9,0,0,1-2.36-.5,3.87,3.87,0,0,0,2.54-.43,12.57,12.57,0,0,1-1.68-.58,9,9,0,0,0,2.63.12,11.93,11.93,0,0,1-2.41-.35,3.89,3.89,0,0,0,2.35-.75s-.69-.1-1.66-.34a11.39,11.39,0,0,0,2.55-.4,14,14,0,0,1-2.75.1A3.49,3.49,0,0,0,48.13,24a18.21,18.21,0,0,1-2-.12,11.23,11.23,0,0,0,2.74-1,15.77,15.77,0,0,1-2.38.61M19.32,40c0,.34,0,.69.08,1a12.09,12.09,0,0,0,.41,2.09h0a.25.25,0,0,1,0,.07s0,.11.05.16l0,.08a.88.88,0,0,0,.05.15.24.24,0,0,1,0,.08l.06.15,0,.07a.88.88,0,0,0,.05.15l0,.07.06.15,0,.06a1.11,1.11,0,0,0,.07.16l0,0,.07.15,0,.05s0,.11.08.16l0,0a1.3,1.3,0,0,0,.08.17l0,0,.09.17v0l.09.17h0l.11.17h0a6.42,6.42,0,0,0,1.44,1.68c.74-2.51-1.94-2.78-3.05-7.32m21.83-6.33c1.49,4.43-.63,6.09,1.34,7.81a9.48,9.48,0,0,0-.85-6.89c-.16-.32-.32-.62-.49-.92"/><path class="cls-1" d="M75.91,61.38H76c.19,0,.29.08.31.24s0,.1.09.1a6.59,6.59,0,0,1,1.85.72.93.93,0,0,1,.59,1v0a2.2,2.2,0,0,1-1,1.34,8.61,8.61,0,0,1-1.39.7l-.59.21a6.53,6.53,0,0,1,0,1.33l0,.1q-.09.45-.36.54c-.32,0-.43-.39-.35-1.17q0-.57-.09-.57s-.09,0-.23-.08a.46.46,0,0,1-.07-.3l0,0v0A1.84,1.84,0,0,1,75,65.3h0a9.46,9.46,0,0,1,.15-2.13l.09-.62c-.34-.14-.5-.24-.49-.3v-.07c.12-.24.2-.36.23-.36l.44-.12a.57.57,0,0,1,.5-.31M76,62.44h0a12.4,12.4,0,0,0-.24,2.62,8.05,8.05,0,0,0,1.31-.53,2,2,0,0,0,.89-.87.37.37,0,0,0,.05-.15h0c.09-.41-.57-.76-2-1.06Z"/><path class="cls-1" d="M80.15,60.73h0q.22,0,.18.18a5,5,0,0,1-.09.9l-.49,2,0,.22a15.74,15.74,0,0,0-.23,2.56l0,.15q0,.25-.18.3a1.43,1.43,0,0,0-.36.07,2.3,2.3,0,0,0-.2-.16,20.12,20.12,0,0,1,.3-3.14l.08-.39a11.58,11.58,0,0,1,.49-1.72s0-.1,0-.29l-.08-.07s.12-.17.23-.5a.74.74,0,0,1,.38-.15"/><path class="cls-1" d="M82.8,63.88h0c.16,0,.23.13.23.37a7.75,7.75,0,0,0,0,1.25,2.14,2.14,0,0,0,.3,1,.78.78,0,0,1,.11.44l0,.06c0,.09-.08.14-.2.14a.85.85,0,0,1-.24.1.92.92,0,0,1-.48-.49c-.06-.18-.15-.54-.26-1l-.05-.09a11.6,11.6,0,0,1-.92,1,1.49,1.49,0,0,1-.94.38.48.48,0,0,1-.52-.47l0-.15v0A3.32,3.32,0,0,1,81,64.73a6.6,6.6,0,0,1,1.35-.7.77.77,0,0,1,.41-.15m-2.07,2.31h0c.19,0,.4-.16.66-.47a2.38,2.38,0,0,0,.71-1v0h0a3.5,3.5,0,0,0-.85.6,1.61,1.61,0,0,0-.5.85"/><path class="cls-1" d="M86.68,63.22a.25.25,0,0,1,.24.13c-.2,1.41-.36,2.4-.47,3l0,.09L86.24,68l0,.17A1.87,1.87,0,0,1,85,69.66a1.16,1.16,0,0,1-.4.07,1.65,1.65,0,0,1-1.32-.85.57.57,0,0,1-.1-.44.49.49,0,0,1,.31-.13q.12,0,.42.27a.51.51,0,0,0,.2,0l.49.33a.72.72,0,0,0,.19,0h0q.36,0,.6-.63a5.75,5.75,0,0,0,.23-.9,10.13,10.13,0,0,0,.19-2,8.86,8.86,0,0,0-.77.85c-.3.25-.49.38-.59.38a1.37,1.37,0,0,1-.5.08h0c-.12,0-.21-.16-.25-.47a2.56,2.56,0,0,1,0-.55,6.53,6.53,0,0,1,.6-1.64c.13-.18.24-.27.35-.27h.08a.4.4,0,0,1,.27.14v0a8.16,8.16,0,0,1-.46,1.15,2.32,2.32,0,0,0-.18.58l0,.19h0c.11,0,.28-.12.52-.36,0,0,.1-.08.19-.24A6.53,6.53,0,0,0,86,63.87a1.37,1.37,0,0,0,.11-.36v0a1.79,1.79,0,0,0,.28-.27Z"/><path class="cls-1" d="M91.1,61.38h.08c.5,0,.84.32,1,.94a2,2,0,0,1,0,.61l-.34.32a.37.37,0,0,1-.16.07h0c-.12,0-.22-.2-.32-.6a.71.71,0,0,0-.3-.53l0,0a1.19,1.19,0,0,0-.62.32A2.85,2.85,0,0,0,89.69,64l0,.12A3.32,3.32,0,0,0,90,66.65a.61.61,0,0,0,.5.28c.43,0,.92-.51,1.49-1.53a9.8,9.8,0,0,0,.4-.94c-.22,0-.7.12-1.42.26v0c0-.07,0-.13-.19-.18s-.08-.09-.07-.14h0c.06-.29.46-.49,1.22-.6a9.68,9.68,0,0,1,1.15-.07c.11,0,.17,0,.16.06a2.75,2.75,0,0,1,0,.38,7.76,7.76,0,0,1-1.18,2.34,2.88,2.88,0,0,1-1.32,1.07.72.72,0,0,1-.33.07h0a1.5,1.5,0,0,1-1.11-.53,4,4,0,0,1-.48-2.81l0-.12A4.29,4.29,0,0,1,90,61.83a1.73,1.73,0,0,1,1.07-.45"/><path class="cls-1" d="M95.8,63.88h0c.15,0,.23.13.23.37a8.55,8.55,0,0,0,0,1.25,2.4,2.4,0,0,0,.3,1,.7.7,0,0,1,.11.44V67c0,.09-.08.14-.2.14a1.19,1.19,0,0,1-.24.1.89.89,0,0,1-.48-.49c-.06-.18-.15-.54-.26-1l-.05-.09c-.37.42-.68.75-.92,1a1.49,1.49,0,0,1-.94.38.47.47,0,0,1-.52-.47l0-.15v0A3.46,3.46,0,0,1,94,64.73a7,7,0,0,1,1.36-.7.72.72,0,0,1,.41-.15m-2.07,2.31h0c.18,0,.4-.16.65-.47a2.29,2.29,0,0,0,.71-1v0h0a3.5,3.5,0,0,0-.85.6,1.55,1.55,0,0,0-.5.85"/><path class="cls-1" d="M99.72,64.38h.06c.25,0,.38.1.38.16a4.66,4.66,0,0,1,.24,1.08,10.66,10.66,0,0,0,.22,1.2s-.06.08-.17.16a0,0,0,0,1,0,0,.59.59,0,0,1-.64-.59,2.92,2.92,0,0,0-.15-.87h0c-.55,1-.9,1.47-1.06,1.47h-.11c-.28,0-.4-.29-.33-.87a1.8,1.8,0,0,0,0-.69,2.88,2.88,0,0,0-.49.8c-.24.5-.46.74-.68.74a.5.5,0,0,1-.28-.11l0-.06,0,0-.06-.08a1.46,1.46,0,0,0,.16-.44l.12-.75,0-.18c.08,0,.14-.06.17-.2v-.06s.07,0,.2-.09,0-.07.07-.07l.14,0a2.07,2.07,0,0,0,.48-.4.84.84,0,0,1,.2-.11q.56,0,.63.72l0,.11h0c.1-.15.22-.35.36-.59a.8.8,0,0,1,.21-.23h.11Z"/><path class="cls-1" d="M102.32,64c.4,0,.68.25.83.76a2.24,2.24,0,0,1,0,.37q-.12.55-1.08.9h0a.54.54,0,0,0,.54.39c.35,0,.77-.27,1.28-.81q.44-.39.63-.39h0l0,0,0,.11,0,0s0,0,0,0,.09,0,.13-.12h0a1.8,1.8,0,0,1-.47.62,1.26,1.26,0,0,0-.13.23q-.17,0-.18.12a2.35,2.35,0,0,1-1.1.73,1.63,1.63,0,0,1-.35,0h-.11c-.56,0-1-.39-1.44-1.18v0l.12-.88,0-.09a.81.81,0,0,1,.5-.69,1.86,1.86,0,0,1,.75-.21m-.57,1.09a.44.44,0,0,0,.1.47,1,1,0,0,0,.44-.2.73.73,0,0,0,.09-.22.36.36,0,0,0-.22-.47h-.09c-.11,0-.18,0-.19.11a.63.63,0,0,0-.13.32"/><path class="cls-1" d="M105.8,64.18h.1c.28,0,.42.06.42.2a1,1,0,0,1,0,.24.65.65,0,0,1-.39.19c-.58.09-.87.16-.88.22s.24.24.56.33a6.53,6.53,0,0,1,1.18.38.52.52,0,0,1,.25.56c-.08.39-.48.65-1.21.78a4.4,4.4,0,0,1-.59,0q-1-.07-1-.24a.32.32,0,0,1-.06-.27v-.06a.65.65,0,0,1,.31-.39,2.16,2.16,0,0,0,1,.28.92.92,0,0,0,.58-.19h0a4.29,4.29,0,0,0-1.12-.37c-.55-.17-.8-.38-.75-.62v0c.07-.38.38-.67.9-.88a1.84,1.84,0,0,1,.71-.16"/><path class="cls-1" d="M107.9,66.24h0c.21.05.31.15.28.28v0c0,.21-.22.38-.56.51h-.11c-.16,0-.25-.08-.28-.26v-.12a.57.57,0,0,1,.35-.4Z"/><path class="cls-1" d="M114.94,60.65c.23,0,.34.08.34.23a.62.62,0,0,1,0,.23l-.11.81c0,.25-.19,1.07-.43,2.47,0,.2,0,.3,0,.3.74.1,1.13.26,1.14.48s-.17.28-.41.28h-.07a2.17,2.17,0,0,1-.75-.08h0l0,0s0,.13,0,.38,0,0-.18,1.27v.11h0a.64.64,0,0,1-.47.16c-.21,0-.31,0-.29-.13a9.74,9.74,0,0,1,.15-1.26,2.08,2.08,0,0,0,0-.47h-.23l-1.19,0c-.08.56-.29,1.5-.32,1.65-.07.41-.17.61-.31.61l-.34,0-.14,0c-.1,0,.06-.85.19-1.39a2.92,2.92,0,0,0,.09-.84l-.09,0h-.12c-.35,0-.56-.06-.62-.18a.15.15,0,0,1,0-.11c0-.26.13-.39.22-.39h.53c.12,0,.19,0,.19,0,.11-1,.26-2.06.43-3.19v0c.15-.53.29-.79.44-.79h.14q.36,0,.33.12a.23.23,0,0,1,0,.22l-.12.49c-.09.43-.23,1.38-.42,2.86l0,.3h.07a7.76,7.76,0,0,0,1.37-.1c.28-1.76.46-2.91.53-3.45v-.09a.57.57,0,0,1,.4-.5Z"/><path class="cls-1" d="M117,64c.4,0,.67.25.83.76a1.41,1.41,0,0,1,0,.37c-.07.37-.43.67-1.07.9h0a.56.56,0,0,0,.55.39c.35,0,.77-.27,1.28-.81q.44-.39.63-.39h0l0,0,0,.11,0,0s0,0,0,0,.09,0,.12-.12h0a2,2,0,0,1-.47.62,1.26,1.26,0,0,0-.13.23c-.11,0-.17.06-.19.12a2.27,2.27,0,0,1-1.09.73,1.63,1.63,0,0,1-.35,0H117c-.57,0-1-.39-1.44-1.18v0l.12-.88,0-.09a.81.81,0,0,1,.5-.69A1.86,1.86,0,0,1,117,64m-.58,1.09c0,.23,0,.38.11.47a1,1,0,0,0,.44-.2.73.73,0,0,0,.09-.22.37.37,0,0,0-.22-.47h-.09c-.11,0-.18,0-.19.11a.73.73,0,0,0-.14.32"/><path class="cls-1" d="M121.27,63.88h.06c.15,0,.23.13.23.37a8.55,8.55,0,0,0,0,1.25,2.4,2.4,0,0,0,.3,1,.78.78,0,0,1,.11.44V67a.18.18,0,0,1-.2.14,1.19,1.19,0,0,1-.24.1.89.89,0,0,1-.48-.49c-.06-.18-.15-.54-.26-1l-.06-.09a11.77,11.77,0,0,1-.91,1,1.47,1.47,0,0,1-.94.38.48.48,0,0,1-.52-.47l0-.15v0a3.32,3.32,0,0,1,1.15-1.57,6.6,6.6,0,0,1,1.35-.7.71.71,0,0,1,.4-.15m-2.06,2.31h0c.18,0,.4-.16.66-.47a2.33,2.33,0,0,0,.7-1v0h0a3.5,3.5,0,0,0-.85.6,1.61,1.61,0,0,0-.5.85"/><path class="cls-1" d="M123.68,60.73h0c.14,0,.21.06.18.18a5,5,0,0,1-.09.9l-.49,2,0,.22a17,17,0,0,0-.23,2.56l0,.15q0,.25-.18.3a1.56,1.56,0,0,0-.37.07,1.19,1.19,0,0,0-.19-.16,18.83,18.83,0,0,1,.31-3.14l.07-.39a11.58,11.58,0,0,1,.49-1.72s0-.1,0-.29l-.08-.07c.05,0,.12-.17.23-.5a.74.74,0,0,1,.38-.15"/><path class="cls-1" d="M127,61.8h.11c.2,0,.28.06.26.17l0,.21c0,.09-.13.43-.35,1l-.06.25a15,15,0,0,0,2.08-1l.54-.35c.36,0,.53.12.5.26v.07c0,.16-.39.41-1.08.73-.37.2-1,.49-1.74.88a1.76,1.76,0,0,0-.44.17l0,.16c0,.18.07.34.33.47a11.1,11.1,0,0,0,1.53,1.2,1.7,1.7,0,0,0,.85.38c.37,0,.55,0,.54.1a.26.26,0,0,1,.05.27,1.81,1.81,0,0,1-.68.16h-.1a3.45,3.45,0,0,1-2-1,2.82,2.82,0,0,0-.59-.37l0,.06v0c0,.13-.06.54-.1,1.23l0,.26a.49.49,0,0,1-.35.14h-.07c-.17,0-.25-.06-.24-.13l.08-1.48c.07-.47.07-.72,0-.77a2.59,2.59,0,0,0-.42-.38.37.37,0,0,1-.08-.3l0-.09c0-.07.21-.17.59-.3l.22-.14,0-.22,0-.26a6.15,6.15,0,0,1,.49-1.36.49.49,0,0,1,.22-.06"/><path class="cls-1" d="M131.69,62.67h.07c.19,0,.3,0,.32.14l0,.13h0c0,.15-.2.25-.53.3h-.08c-.23,0-.33-.09-.31-.2v-.11a.54.54,0,0,1,.51-.27m-.2,1.14c.15,0,.22,0,.2.11a8.17,8.17,0,0,1-.17,1.57l-.06.32L131.2,67a.7.7,0,0,1-.3.1l-.11.09h0c-.07,0-.12,0-.16-.14s0,.06,0,.06-.11-.31-.05-.65l.38-1.37c0-.2.07-.47.14-.83s.2-.47.43-.47"/><path class="cls-1" d="M135,62.21h.13q0,.09.12.15c.07,0,.05.34,0,.88l-.2,1,0,.13a3.84,3.84,0,0,0,.21,1.89c.12.17.17.3.15.38v.08A1.65,1.65,0,0,1,135,67h-.19c-.26,0-.42-.17-.46-.51a.89.89,0,0,0-.19-.39,2.06,2.06,0,0,1-.78.68,3.3,3.3,0,0,1-1.37.29c-.17-.14-.25-.21-.24-.22a2.17,2.17,0,0,1,0-.4l0-.06c0-.22.34-.56.9-1a3.26,3.26,0,0,1,1.21-.61.22.22,0,0,0,.17-.19c.1-.89.17-1.48.22-1.75l.07-.32.43-.28a.3.3,0,0,1,.12,0m-2.34,4.2h.11c.33,0,.65-.26,1-.78a1,1,0,0,0,.09-.17,1.76,1.76,0,0,0-.91.58,2,2,0,0,0-.26.36"/><path class="cls-1" d="M137.24,64.18h.09c.28,0,.42.06.42.2a1.35,1.35,0,0,1,0,.24.71.71,0,0,1-.4.19c-.57.09-.86.16-.88.22s.25.24.57.33a6.11,6.11,0,0,1,1.17.38.5.5,0,0,1,.25.56c-.07.39-.48.65-1.21.78a4.26,4.26,0,0,1-.58,0c-.71,0-1.05-.13-1-.24a.36.36,0,0,1-.05-.27v-.06a.62.62,0,0,1,.31-.39,2.13,2.13,0,0,0,1,.28.93.93,0,0,0,.59-.19h0a4.43,4.43,0,0,0-1.12-.37c-.55-.17-.8-.38-.75-.62v0a1.29,1.29,0,0,1,.91-.88,1.84,1.84,0,0,1,.71-.16"/><path class="cls-1" d="M139.34,66.24h0c.21.05.3.15.27.28v0c0,.21-.23.38-.56.51H139c-.15,0-.24-.08-.27-.26v-.12a.59.59,0,0,1,.36-.4Z"/><path class="cls-1" d="M71.77,45.94A6,6,0,0,0,70,50.35v6.54a1.87,1.87,0,0,0,.54,1.4,1.85,1.85,0,0,0,1.39.54,1.91,1.91,0,0,0,1.41-.54,1.84,1.84,0,0,0,.55-1.4V50.34a2.12,2.12,0,0,1,.64-1.6A2.68,2.68,0,0,1,76.13,48c1.33-.11,2-.76,2-2a1.88,1.88,0,0,0-.55-1.38,1.85,1.85,0,0,0-1.38-.55,6,6,0,0,0-4.42,1.79"/><path class="cls-1" d="M57.84,41.3a1.91,1.91,0,0,0-.54,1.41v9.9a6.11,6.11,0,0,0,6.22,6.22h1.83a1.72,1.72,0,0,0,1.92-2,1.82,1.82,0,0,0-1.92-1.93H63.52a2.2,2.2,0,0,1-1.65-.68,2.25,2.25,0,0,1-.68-1.65V48.12h4.16a1.71,1.71,0,0,0,1.92-2,1.82,1.82,0,0,0-1.92-1.92H61.19V42.71a1.88,1.88,0,0,0-.55-1.41,1.91,1.91,0,0,0-1.41-.55,1.87,1.87,0,0,0-1.39.55"/><path class="cls-1" d="M84.16,53.91a3.35,3.35,0,0,1-1-2.47A3.45,3.45,0,0,1,86.6,48a3.47,3.47,0,0,1,3.48,3.48v3.48H86.6a3.26,3.26,0,0,1-2.44-1m-2.78-7.7A7.38,7.38,0,0,0,86.6,58.83H92a3.51,3.51,0,0,0,1.41-.54,1.85,1.85,0,0,0,.55-1.4V51.47a7.4,7.4,0,0,0-12.59-5.26"/><path class="cls-1" d="M103.36,38.87a1.84,1.84,0,0,0-.53,1.36v16.7a1.84,1.84,0,0,0,.53,1.36,1.87,1.87,0,0,0,1.4.54,1.94,1.94,0,0,0,1.41-.54,1.86,1.86,0,0,0,.54-1.39V40.26a1.71,1.71,0,0,0-1.95-1.92,1.86,1.86,0,0,0-1.4.53"/><path class="cls-1" d="M122.89,38.22a6.1,6.1,0,0,0-6.21,6.25V56.86a1.94,1.94,0,0,0,.53,1.42,1.87,1.87,0,0,0,1.39.55,1.88,1.88,0,0,0,2-2V52.48h2.94a1.88,1.88,0,0,0,1.4-.54,1.92,1.92,0,0,0,.53-1.4,1.72,1.72,0,0,0-1.93-2h-2.94v-4.1a2.29,2.29,0,0,1,.68-1.67,2.25,2.25,0,0,1,1.65-.68h1a2,2,0,0,0,0-3.9Z"/><path class="cls-1" d="M131.2,51.44a3.34,3.34,0,0,1,1-2.45,3.28,3.28,0,0,1,2.44-1,3.19,3.19,0,0,1,.75.08L131.24,52a4.91,4.91,0,0,1,0-.55m-1.77-5.23a7.38,7.38,0,0,0,5.22,12.62h2.57a1.87,1.87,0,0,0,1.39-.55,1.93,1.93,0,0,0,.53-1.41,1.82,1.82,0,0,0-1.92-1.93h-2.57a3.59,3.59,0,0,1-.81-.09l5.88-5.59a1.88,1.88,0,0,0,.26-2.92,7.46,7.46,0,0,0-10.55-.13"/><path class="cls-1" d="M31.17,51.44a3.34,3.34,0,0,1,1-2.45,3.28,3.28,0,0,1,2.44-1,3.19,3.19,0,0,1,.75.08L31.22,52a3.31,3.31,0,0,1,0-.55M29.4,46.21a7.38,7.38,0,0,0,5.23,12.62h2.56a1.87,1.87,0,0,0,1.39-.55,1.93,1.93,0,0,0,.53-1.41,1.82,1.82,0,0,0-1.92-1.93H34.63a3.62,3.62,0,0,1-.82-.09l5.88-5.59A1.88,1.88,0,0,0,40,46.34a7.46,7.46,0,0,0-10.55-.13"/><path class="cls-1" d="M53.75,58.83a2.11,2.11,0,0,1-1.28-.5,6.61,6.61,0,0,1-1.1-1.19l-2.61-3.27-2.67,3.27a8.15,8.15,0,0,1-1.1,1.2,1.94,1.94,0,0,1-1.21.49,2.32,2.32,0,0,1-1.44-.58,1.49,1.49,0,0,1-.6-1.17,3.34,3.34,0,0,1,.84-1.78L46,51.08l-3-3.42a3,3,0,0,1-.86-1.84,1.47,1.47,0,0,1,.57-1.15,2.16,2.16,0,0,1,1.41-.58,2.08,2.08,0,0,1,1.27.52,7.14,7.14,0,0,1,1.08,1.17l2.31,3.09L51,45.79A6.32,6.32,0,0,1,52.1,44.6a2,2,0,0,1,1.24-.48,2.3,2.3,0,0,1,1.43.54,1.45,1.45,0,0,1,.6,1.16,1.85,1.85,0,0,1-.24.91,6,6,0,0,1-.65.93l-3,3.42,3.38,4.22a3.51,3.51,0,0,1,.87,1.8,1.45,1.45,0,0,1-.6,1.17A2.22,2.22,0,0,1,53.75,58.83Z"/><path class="cls-1" d="M142.65,43.94v.24H142V46h-.28V44.18H141v-.24Z"/><path class="cls-1" d="M142.9,43.94h.4l.58,1.72.58-1.72h.39v2h-.26v-1.4c0-.1,0-.2,0-.31L144,46h-.27l-.58-1.71V46h-.26Z"/><path class="cls-1" d="M152.88,61.25,147,54.5a1,1,0,0,0-1.44-.09l-6.74,5.9a1,1,0,0,0-.1,1.44l5.91,6.74a1,1,0,0,0,1.44.1l6.74-5.9A1,1,0,0,0,152.88,61.25Zm-10.52.48a.93.93,0,0,1-1.29-.08.92.92,0,0,1,.09-1.29.91.91,0,1,1,1.2,1.37Zm2,2.25a.91.91,0,1,1,.08-1.29A.91.91,0,0,1,144.34,64Zm2,2.26a.92.92,0,1,1,.08-1.29A.91.91,0,0,1,146.31,66.24Zm.32-8.09a.91.91,0,0,1-1.29-.08.92.92,0,0,1,.09-1.29.91.91,0,0,1,1.29.08A.92.92,0,0,1,146.63,58.15Zm2,2.25a.91.91,0,0,1-1.29-.08.91.91,0,1,1,1.38-1.2A.91.91,0,0,1,148.6,60.4Zm2,2.26a.92.92,0,0,1-1.29-.09.91.91,0,0,1,.08-1.29.92.92,0,0,1,1.21,1.38Z"/><path class="cls-1" d="M155.43,55.64l-1.56-8.83a1,1,0,0,0-1.19-.83l-8.82,1.57a1,1,0,0,0-.83,1.18l1.12,6.3,1.27-1.11a1.22,1.22,0,0,1,1.68.11l3.13,3.57,4.38-.78A1,1,0,0,0,155.43,55.64Zm-9.59-4.86a.91.91,0,1,1,.74-1.06A.92.92,0,0,1,145.84,50.78Zm3.55,2.41a.91.91,0,0,1-.32-1.8.91.91,0,0,1,.32,1.8ZM153,55.6a.91.91,0,1,1,.74-1.06A.93.93,0,0,1,153,55.6Z"/><path class="cls-1" d="M56.78,35V31.81l-4.49-4.5h3.14l2.48,2.48,2.47-2.48h3.15L59,31.81V35Z"/><path class="cls-1" d="M66,35V31.81l-4.5-4.5h3.15l2.48,2.48,2.47-2.48h3.15l-4.5,4.5V35Z"/><path class="cls-1" d="M71.54,35V27.31h9.9v2.25H73.79v3.15h7.65V35Z"/></svg>